<?xml version="1.0" encoding="UTF-8" standalone="no"?>
<!DOCTYPE svg PUBLIC "-//W3C//DTD SVG 1.1//EN" "http://www.w3.org/Graphics/SVG/1.1/DTD/svg11.dtd">
<svg width="100%" height="100%" viewBox="0 0 1080 1080" version="1.1" xmlns="http://www.w3.org/2000/svg" xmlns:xlink="http://www.w3.org/1999/xlink" xml:space="preserve" xmlns:serif="http://www.serif.com/" style="fill-rule:evenodd;clip-rule:evenodd;stroke-linecap:round;stroke-linejoin:round;stroke-miterlimit:1.5;">
    <path d="M25.42,50.84C24.816,53.86 24.127,57.306 26.794,89.313C26.794,68.447 40.163,65.582 25.42,50.84C19.444,44.864 38.449,166.775 28.168,94.809C23.634,63.069 24.479,60.533 25.42,57.71" style="fill:none;stroke:black;stroke-opacity:0.36;stroke-width:1px;"/>
    <path d="M22.672,46.718C35.038,42.595 55.52,42.595 58.397,42.595C60.935,42.595 55.948,42.693 26.794,45.344C31.355,44.929 35.973,45.758 40.534,45.344C41.308,45.273 41.247,45.242 50.153,43.969C38.264,45.668 38.834,45.514 26.794,46.718C54.744,44.388 54.676,44.556 57.023,43.969" style="fill:none;stroke:black;stroke-opacity:0.36;stroke-width:1px;"/>
    <path d="M57.023,45.344C54.534,37.875 53.649,38.722 44.656,27.481C47.405,31.603 59.552,43.751 58.397,42.595C55.758,39.957 57.296,50.566 50.153,57.71C49.387,58.475 50.043,56.555 55.649,45.344" style="fill:none;stroke:black;stroke-opacity:0.36;stroke-width:1px;"/>
    <path d="M734.285,120.355C734.285,123.91 713.052,157.066 706.144,163.973C702.663,167.455 719.71,160.154 749.058,167.491C761.452,170.589 761.968,169.179 761.722,168.194C755.376,142.812 748.233,146.018 739.913,121.059C739.873,120.94 738.506,116.838 738.506,120.355" style="fill:none;stroke:black;stroke-opacity:0.36;stroke-width:1px;"/>
    <path d="M720.918,147.089C750.465,151.31 750.955,151.065 753.279,149.903" style="fill:none;stroke:black;stroke-opacity:0.36;stroke-width:1px;"/>
    <path d="M737.099,148.496C736.864,152.71 737.333,156.945 737.099,161.159C737.092,161.285 737.099,161.159 736.395,162.566" style="fill:none;stroke:black;stroke-opacity:0.36;stroke-width:1px;"/>
    <path d="M734.285,128.798C733.561,135.307 734.221,135.013 733.522,141.461L737.099,141.461" style="fill:none;stroke:black;stroke-opacity:0.36;stroke-width:1px;"/>
    <path d="M733.581,135.833L736.395,135.833" style="fill:none;stroke:black;stroke-opacity:0.36;stroke-width:1px;"/>
    <path d="M733.581,130.908C735.629,129.372 735.377,129.307 737.802,128.094" style="fill:none;stroke:black;stroke-opacity:0.36;stroke-width:1px;"/>
    <path d="M723.028,152.717C723.11,153.285 723.732,157.642 724.435,159.752" style="fill:none;stroke:black;stroke-opacity:0.36;stroke-width:1px;"/>
    <path d="M721.621,157.642L730.767,157.642" style="fill:none;stroke:black;stroke-opacity:0.36;stroke-width:1px;"/>
    <path d="M720.918,152.717C726.97,149.691 727.099,149.049 727.953,149.903" style="fill:none;stroke:black;stroke-opacity:0.36;stroke-width:1px;"/>
    <path d="M746.244,155.531C746.479,158.814 746.713,162.097 746.948,165.38" style="fill:none;stroke:black;stroke-opacity:0.36;stroke-width:1px;"/>
    <path d="M746.948,155.531L751.169,154.124" style="fill:none;stroke:black;stroke-opacity:0.36;stroke-width:1px;"/>
    <path d="M746.825,160.623C747.357,160.445 753.914,158.26 750.052,154.398" style="fill:none;stroke:black;stroke-opacity:0.36;stroke-width:1px;"/>
    <path d="M749.361,159.931C752.249,161.375 751.552,162.122 754.663,165.233" style="fill:none;stroke:black;stroke-opacity:0.36;stroke-width:1px;"/>
    <path d="M129.761,560.258C130.931,562.599 137.141,584.536 138.555,583.122" style="fill:none;stroke:black;stroke-opacity:0.36;stroke-width:1px;"/>
    <path d="M127.123,556.741C127.947,556.123 127.375,552.47 134.158,555.861C141.441,559.503 139.664,562.782 132.399,566.414" style="fill:none;stroke:black;stroke-opacity:0.36;stroke-width:1px;"/>
    <path d="M143.831,561.138C144.398,560.571 148.228,556.741 151.745,554.982" style="fill:none;stroke:black;stroke-opacity:0.36;stroke-width:1px;"/>
    <path d="M146.469,568.173C151.352,566.952 150.397,565.398 155.263,563.776" style="fill:none;stroke:black;stroke-opacity:0.36;stroke-width:1px;"/>
    <path d="M152.625,547.947C153.165,547.587 157.901,544.429 158.781,542.671C159.095,542.041 160.539,539.153 165.816,537.394" style="fill:none;stroke:black;stroke-opacity:0.36;stroke-width:1px;"/>
    <path d="M160.539,540.912C168.319,560.36 167.179,560.742 168.454,562.017" style="fill:none;stroke:black;stroke-opacity:0.36;stroke-width:1px;"/>
    <path d="M164.057,567.293C176.867,555.764 177.08,556.114 179.007,553.223" style="fill:none;stroke:black;stroke-opacity:0.36;stroke-width:1px;"/>
    <path d="M179.007,533.877C182.328,547.163 179.019,556.734 191.318,550.585" style="fill:none;stroke:black;stroke-opacity:0.36;stroke-width:1px;"/>
    <path d="M183.403,546.188C187.293,544.243 186.734,543.924 188.68,540.032" style="fill:none;stroke:black;stroke-opacity:0.36;stroke-width:1px;"/>
    <path d="M179.886,533.877C183.824,529.152 185.115,530.454 187.8,525.083" style="fill:none;stroke:black;stroke-opacity:0.36;stroke-width:1px;"/>
    <path d="M747.092,387.019C740.551,387.019 742.907,390.112 740.057,395.813C696.38,483.165 652.704,570.518 609.028,657.871" style="fill:none;stroke:black;stroke-opacity:0.36;stroke-width:1px;"/>
    <path d="M814.805,407.245C802.95,438.856 799.621,437.252 789.303,469.681C785.662,481.122 783.348,479.992 734.78,609.504C715.258,661.564 714.492,662.33 711.037,665.785" style="fill:none;stroke:black;stroke-opacity:0.36;stroke-width:1px;"/>
    <path d="M874.603,427.471C860.759,475.927 799.912,642.957 786.664,686.011C768.735,744.283 768.993,744.302 767.318,749.327" style="fill:none;stroke:black;stroke-opacity:0.36;stroke-width:1px;"/>
    <path d="M931.764,477.596C905.382,547.947 888.674,598.07 885.156,608.625C881.293,620.215 834.591,760.319 840.307,754.603" style="fill:none;stroke:black;stroke-opacity:0.36;stroke-width:1px;"/>
    <path d="M663.55,422.194C665.054,423.698 665.914,422.428 685.535,437.144C694.012,443.502 696.188,438.963 718.072,452.093C809.892,507.185 914.869,531.159 977.492,587.519C978.088,588.056 982.988,592.466 985.406,593.675" style="fill:none;stroke:black;stroke-opacity:0.36;stroke-width:1px;"/>
    <path d="M604.631,508.374C613.089,511.194 626.349,525.126 661.791,537.394C731.937,561.675 725.452,573.791 790.182,609.504C855.191,645.371 870.605,647.027 911.538,686.011C930.498,704.068 929.78,704.621 938.799,710.634" style="fill:none;stroke:black;stroke-opacity:0.36;stroke-width:1px;"/>
    <path d="M568.576,589.278C571.409,590.411 685.955,660.126 707.519,678.097C757.935,720.11 763.775,711.591 815.684,751.965C833.119,765.526 837.35,758.761 890.432,798.573C900.808,806.355 902.152,804.581 902.744,804.729" style="fill:none;stroke:black;stroke-opacity:0.36;stroke-width:1px;"/>
    <path d="M668.826,541.791C669.151,542.279 670.26,541.303 670.585,541.791C669.999,540.912 669.413,540.032 668.826,539.153C670.314,541.385 669.891,541.668 669.706,541.791C669.444,541.966 667.727,543.11 666.188,540.032" style="fill:none;stroke:black;stroke-opacity:0.36;stroke-width:1px;"/>
    <path d="M712.796,448.576C722.834,478.691 708.083,444.415 707.904,443.904L713.675,445.058" style="fill:none;stroke:black;stroke-opacity:0.36;stroke-width:1px;"/>
    <path d="M780.509,487.269C786.748,493.508 778.757,489.057 778.75,489.028C777.079,482.344 787.881,484.294 784.906,487.269C772.418,499.756 784.1,481.204 784.378,480.762C785.297,485.013 786.021,485.038 784.026,489.028" style="fill:none;stroke:black;stroke-opacity:0.36;stroke-width:1px;"/>
    <path d="M746.213,580.484C756.16,585.458 742.307,583.82 741.816,581.364C739.871,571.643 751.236,577.472 748.851,582.243C745.482,588.98 735.285,579.259 744.454,576.967" style="fill:none;stroke:black;stroke-opacity:0.36;stroke-width:1px;"/>
    <path d="M849.101,511.013C849.231,511.595 852.116,524.58 843.825,516.289C839.625,512.089 847.286,502.929 850.86,513.651C851.076,514.299 849.099,523.195 842.506,511.892L849.101,511.892" style="fill:none;stroke:black;stroke-opacity:0.36;stroke-width:1px;"/>
    <path d="M806.011,616.539C819.103,625.891 806.722,626.517 806.011,626.213C798.165,622.85 808.899,611.448 813.046,621.816C815.361,627.602 803.79,622.741 806.89,616.539" style="fill:none;stroke:black;stroke-opacity:0.36;stroke-width:1px;"/>
    <path d="M908.9,540.032C911.754,543.6 912.27,543.795 909.779,547.947C899.661,543.9 909.49,541.306 911.538,542.671C915.132,545.067 910.883,549.276 908.9,545.309" style="fill:none;stroke:black;stroke-opacity:0.36;stroke-width:1px;"/>
    <path d="M870.206,653.474C870.314,653.743 873.138,660.802 869.327,656.991C868.816,656.48 865.047,652.711 875.75,650.644C874.536,651.649 875.818,654.227 874.603,655.232C868.531,660.257 870.975,652.928 871.086,652.594" style="fill:none;stroke:black;stroke-opacity:0.36;stroke-width:1px;"/>
    <path d="M829.755,763.397C840.577,756.904 834.008,770.504 832.393,771.312C826.418,774.299 828.791,757.35 834.151,761.638C851.158,775.244 829.257,763.626 828.875,763.397" style="fill:none;stroke:black;stroke-opacity:0.36;stroke-width:1px;"/>
    <path d="M771.715,719.428C786.935,728.125 775.264,731.087 774.353,730.86C767.825,729.228 769.739,717.561 773.474,719.428C773.877,719.629 777.455,721.95 769.956,723.825" style="fill:none;stroke:black;stroke-opacity:0.36;stroke-width:1px;"/>
    <path d="M702.243,670.182C702.758,670.329 731.801,683.068 704.881,676.338C693.123,673.398 709.849,665.738 711.916,671.941C713.03,675.283 705.537,675.346 704.002,674.579C700.703,672.93 702.432,671.846 705.761,670.182" style="fill:none;stroke:black;stroke-opacity:0.36;stroke-width:1px;"/>
    <path d="M621.339,626.213C621.797,626.098 637.373,623.117 623.977,631.489C619.743,634.135 620.915,622.962 628.374,624.454C634.124,625.604 624.58,631.966 623.977,632.368C623.279,625.379 621.775,625.119 625.736,619.177" style="fill:none;stroke:black;stroke-opacity:0.36;stroke-width:1px;"/>
    <path d="M666.188,541.791C668.533,542.377 668.984,542.828 668.826,542.671C668.533,542.377 668.24,542.084 667.947,541.791" style="fill:none;stroke:black;stroke-opacity:0.36;stroke-width:1px;"/>
    <path d="M90.188,269.181C154.125,265.984 153.646,261.266 217.7,261.266C247.094,261.266 253.498,253.935 360.161,246.316" style="fill:none;stroke:black;stroke-opacity:0.36;stroke-width:1px;"/>
    <path d="M365.437,219.055C365.437,225.107 365.437,257.748 363.678,294.683" style="fill:none;stroke:black;stroke-opacity:0.36;stroke-width:1px;"/>
    <path d="M84.912,243.678C87.113,276.696 81.191,276.28 83.153,309.632" style="fill:none;stroke:black;stroke-opacity:0.36;stroke-width:1px;"/>
    <path d="M90.188,270.06C103.103,244.23 125.559,162.611 179.886,198.829C192.704,207.375 213.721,347.944 273.981,340.411C318.375,334.862 321.4,331.82 332.02,299.959C332.263,299.232 348.242,261.659 342.573,255.99" style="fill:none;stroke:black;stroke-opacity:0.36;stroke-width:1px;"/>
    <path d="M206.268,239.281C207.168,268.996 208.064,269.068 206.268,274.457" style="fill:none;stroke:black;stroke-opacity:0.36;stroke-width:1px;"/>
    <path d="M152.625,181.242C152.893,184.455 152.357,187.702 152.625,190.915C152.666,191.411 152.69,191.371 153.504,197.071" style="fill:none;stroke:black;stroke-opacity:0.36;stroke-width:1px;"/>
    <path d="M286.292,328.979C286.379,330.46 287.171,343.929 288.051,347.446" style="fill:none;stroke:black;stroke-opacity:0.36;stroke-width:1px;"/>
    <path d="M440.185,179.483C377.739,151.729 361.075,302.275 400.613,304.356C457.529,307.352 522.031,234.204 470.084,190.915C460.777,183.159 456.328,182.321 417.321,184.759" style="fill:none;stroke:black;stroke-opacity:0.36;stroke-width:1px;"/>
    <path d="M380.387,241.04C383.181,249.424 376.025,243.839 375.99,243.678C373.381,231.941 387.175,235.308 384.784,243.678C382.492,251.699 369.661,238.445 376.869,236.643C381.763,235.42 387.021,241.24 382.145,243.678C380.191,244.655 378.751,238.894 378.628,238.402" style="fill:none;stroke:black;stroke-opacity:0.36;stroke-width:1px;"/>
    <path d="M375.11,214.658C383.14,195.922 379.885,194.055 394.457,179.483C412.924,161.016 430.469,158.823 434.029,158.377C433.264,157.803 402.371,134.634 422.597,154.86" style="fill:none;stroke:black;stroke-opacity:0.36;stroke-width:1px;"/>
    <path d="M435.788,157.498C430.79,163.746 433.447,165.115 427.874,170.689" style="fill:none;stroke:black;stroke-opacity:0.36;stroke-width:1px;"/>
    <path d="M499.104,254.231C472.266,321.326 406.163,314.332 420.839,306.994C420.839,306.994 429.386,299.396 428.753,299.959" style="fill:none;stroke:black;stroke-opacity:0.36;stroke-width:1px;"/>
    <path d="M417.321,308.753C421.216,316.543 421.455,316.199 428.753,321.064" style="fill:none;stroke:black;stroke-opacity:0.36;stroke-width:1px;"/>
    <path d="M398.854,231.367C394.5,233.544 389.59,239.125 395.336,241.04C407.773,245.186 393.346,248.793 392.698,248.955" style="fill:none;stroke:black;stroke-opacity:0.36;stroke-width:1px;"/>
    <path d="M404.13,232.246C404.041,233.227 403.251,241.919 404.13,244.558" style="fill:none;stroke:black;stroke-opacity:0.36;stroke-width:1px;"/>
    <path d="M406.768,244.558C409.143,233.873 409.657,233.376 410.286,234.005C412.297,236.016 411.015,252.044 414.683,241.04C416.613,235.248 416.688,235.658 418.2,229.608" style="fill:none;stroke:black;stroke-opacity:0.36;stroke-width:1px;"/>
    <path d="M434.029,175.965C434.123,176.717 436.668,197.071 430.512,184.759C428.599,180.934 428.515,180.839 430.512,176.845C429.926,178.017 429.339,179.19 428.753,180.362C428.976,179.917 430.512,176.845 434.909,181.242C434.998,181.331 436.138,189.506 429.632,183" style="fill:none;stroke:black;stroke-opacity:0.36;stroke-width:1px;"/>
    <path d="M422.597,199.709C416.518,201.229 418.621,203.304 418.2,204.985C416.827,210.479 419.26,209.559 423.477,210.261" style="fill:none;stroke:black;stroke-opacity:0.36;stroke-width:1px;"/>
    <path d="M437.547,202.347C431.713,202.347 429.704,203.37 432.271,208.503C432.514,208.99 450.453,205.77 432.271,199.709" style="fill:none;stroke:black;stroke-opacity:0.36;stroke-width:1px;"/>
    <path d="M446.341,197.071C445.995,197.503 438.33,198.781 447.22,203.226C447.898,203.565 454.255,206.744 443.703,212.02" style="fill:none;stroke:black;stroke-opacity:0.36;stroke-width:1px;"/>
    <path d="M572.093,183C570.32,214.916 569.457,214.629 569.434,246.374C536.532,243.447 521.745,257.079 518.451,247.196" style="fill:none;stroke:black;stroke-opacity:0.36;stroke-width:1px;"/>
    <path d="M555.385,244.558C558.822,234.246 559.938,232.285 570.335,234.884" style="fill:none;stroke:black;stroke-opacity:0.36;stroke-width:1px;"/>
    <path d="M594.958,222.573C587.98,221.177 584.37,223.189 588.802,228.729C589.393,229.468 591.787,231.436 596.716,219.935C595.332,232.393 595.32,232.137 594.078,244.558" style="fill:none;stroke:black;stroke-opacity:0.36;stroke-width:1px;"/>
    <path d="M606.39,227.849C592.959,232.326 607.354,238.084 608.148,238.402C609.416,234.917 618.895,229.705 604.631,222.573" style="fill:none;stroke:black;stroke-opacity:0.36;stroke-width:1px;"/>
    <path d="M624.857,215.538C621.498,222.255 616.692,227.639 623.977,225.211C627.413,224.066 630.381,207.376 622.219,215.538" style="fill:none;stroke:black;stroke-opacity:0.36;stroke-width:1px;"/>
    <path d="M710.635,446.051C715.201,446.051 716.863,456.652 711.514,453.086C706.708,449.882 710.871,442.481 712.394,447.81C713.699,452.377 711.192,453.643 707.997,450.448C706.921,449.372 707.021,446.834 708.876,448.689" style="fill:none;stroke:black;stroke-opacity:0.36;stroke-width:1px;"/>
    <path d="M219.057,550.698C240.109,561.224 236.66,575.305 243.679,568.286C256.716,555.25 301.706,547.232 303.478,540.146C304.976,534.152 304.686,534.434 306.116,528.714C307.884,521.642 314.574,515.691 307.875,519.04" style="fill:none;stroke:black;stroke-opacity:0.36;stroke-width:1px;"/>
    <path d="M290.287,546.301C293.121,537.8 291.585,537.807 292.046,531.352" style="fill:none;stroke:black;stroke-opacity:0.36;stroke-width:1px;"/>
    <path d="M279.734,549.819C276.865,545.993 276.725,546.439 274.458,541.905" style="fill:none;stroke:black;stroke-opacity:0.36;stroke-width:1px;"/>
    <path d="M264.785,556.854C261.312,551.992 262.008,551.323 255.991,549.819" style="fill:none;stroke:black;stroke-opacity:0.36;stroke-width:1px;"/>
    <path d="M247.197,563.01C240.721,559.772 242.518,553.478 235.765,556.854" style="fill:none;stroke:black;stroke-opacity:0.36;stroke-width:1px;"/>
    <path d="M219.057,549.819C219.608,549.268 224.828,554.488 226.971,548.06C228.123,544.604 232.17,551.732 234.006,548.06C235.985,544.103 237.839,546.866 241.041,543.663C243.708,540.996 243.448,538.156 246.318,541.025C248.361,543.069 247.93,538.71 250.715,539.266C254.926,540.109 254.676,537.069 258.629,538.387C259.056,538.529 260.89,539.141 263.026,534.869C264.687,531.548 266.316,533.451 268.302,530.472C270.298,527.479 272.217,533.46 274.458,530.472C279.468,523.793 280.597,527.386 281.493,527.834C284.735,529.455 286.166,517.231 288.528,524.317C289.031,525.824 295.045,522.817 295.563,522.558C299.141,520.769 298.798,520.166 302.598,520.799C307.67,521.644 307.677,519.381 312.272,521.679C318.869,524.977 313.843,490.669 270.94,504.97C263.996,507.285 266.801,512.155 259.508,512.885C252.608,513.575 244.163,507.124 221.695,529.593C220.404,530.884 209.207,542.08 211.142,549.819C211.569,551.526 216.173,548.448 218.177,552.457" style="fill:none;stroke:black;stroke-opacity:0.36;stroke-width:1px;"/>
    <path d="M245.438,519.04C248.212,520.427 247.822,520.714 250.715,521.679" style="fill:none;stroke:black;stroke-opacity:0.36;stroke-width:1px;"/>
    <path d="M262.147,515.523C263.94,516.42 264.019,515.58 265.664,516.402" style="fill:none;stroke:black;stroke-opacity:0.36;stroke-width:1px;"/>
    <path d="M272.699,508.488C275.37,511.159 276.208,509.358 278.855,512.005" style="fill:none;stroke:black;stroke-opacity:0.36;stroke-width:1px;"/>
    <path d="M240.162,497.056C237.423,487.471 235.193,489.295 226.092,484.744C219.595,481.496 230.716,470.901 226.092,466.277C211.582,451.767 214.336,449.013 215.539,447.81" style="fill:none;stroke:black;stroke-opacity:0.36;stroke-width:1px;"/>
    <path d="M265.664,481.227C260.775,468.188 250.63,470.929 255.111,457.483C258.443,447.489 238.869,448.637 244.559,437.257" style="fill:none;stroke:black;stroke-opacity:0.36;stroke-width:1px;"/>
    <path d="M212.021,505.85C195.458,496.815 193.655,499.539 193.554,497.935C192.721,484.602 197.763,481.133 185.64,475.071C184.519,474.511 178.956,471.729 175.966,462.759" style="fill:none;stroke:black;stroke-opacity:0.36;stroke-width:1px;"/>
    <path d="M212.901,548.06C214.002,543.654 214.879,544.323 218.177,541.025C220.944,538.258 224.79,543.206 231.368,536.628C231.519,536.477 235.907,540.004 237.524,538.387C237.857,538.053 247.382,538.017 250.715,531.352C251.296,530.188 251.642,532.183 252.473,531.352C253.697,530.128 264.15,530.863 267.423,524.317C269.141,520.882 278.655,526.475 283.252,517.282C284.519,514.747 299.944,520.816 309.634,511.126C314.988,505.771 315.339,520.656 309.634,522.558" style="fill:none;stroke:black;stroke-opacity:0.36;stroke-width:1px;"/>
    <path d="M402.849,492.659L404.608,492.659" style="fill:none;stroke:black;stroke-opacity:0.36;stroke-width:1px;"/>
    <path d="M75.527,191.276C75.954,198.539 76.828,198.415 82.397,281.963C82.707,286.602 84.733,317.001 89.268,339.673" style="fill:none;stroke:black;stroke-opacity:0.36;stroke-width:1px;"/>
    <path d="M64.535,347.917C53.137,365.013 66.49,362.45 67.283,361.657C71.628,357.312 69.635,330.845 61.787,346.543" style="fill:none;stroke:black;stroke-opacity:0.36;stroke-width:1px;"/>
    <path d="M45.298,181.657C46.178,181.437 56.291,178.909 56.291,178.909C58.008,177.192 55.133,191.566 54.917,192.65" style="fill:none;stroke:black;stroke-opacity:0.36;stroke-width:1px;"/>
    <path d="M48.046,198.146C49.094,197.796 48.934,198.608 61.787,196.772" style="fill:none;stroke:black;stroke-opacity:0.36;stroke-width:1px;"/>
    <path d="M39.802,720.283C70.439,735.601 63.957,747.099 71.405,746.39" style="fill:none;stroke:black;stroke-opacity:0.36;stroke-width:1px;"/>
    <path d="M48.046,762.878C63.619,755.092 79.191,747.306 94.764,739.52C97.887,737.958 134.376,719.714 133.237,718.909" style="fill:none;stroke:black;stroke-opacity:0.36;stroke-width:1px;"/>
    <path d="M104.382,734.024C106.855,711.764 111.732,692.257 112.626,688.68" style="fill:none;stroke:black;stroke-opacity:0.36;stroke-width:1px;"/>
    <path d="M68.657,743.642C69.826,742.473 69.726,742.573 67.283,723.031C69.407,733.649 71.246,733.284 68.657,743.642" style="fill:none;stroke:black;stroke-opacity:0.36;stroke-width:1px;"/>
    <path d="M67.283,749.138C59.233,747.796 60.136,745.456 50.794,746.39C46.843,746.785 71.324,751.806 67.283,747.764" style="fill:none;stroke:black;stroke-opacity:0.36;stroke-width:1px;"/>
    <path d="M89.268,746.39C92.933,753.722 91.054,754.084 94.764,761.504C102.397,776.772 102.249,776.728 103.008,777.993C97.522,761.535 93.562,763.565 89.268,746.39" style="fill:none;stroke:black;stroke-opacity:0.36;stroke-width:1px;"/>
    <g transform="matrix(1,0,0,1,-86.5318,-55.5773)">
        <path d="M497.359,843.947C496.663,844.644 494.879,845.874 495.985,845.321" style="fill:none;stroke:black;stroke-opacity:0.36;stroke-width:1px;"/>
    </g>
    <path d="M704.84,684.558C704.84,684.558 687.032,729.077 688.351,725.779" style="fill:none;stroke:black;stroke-opacity:0.36;stroke-width:1px;"/>
    <path d="M838.122,48.375C902.64,64.504 970.81,192.706 891.71,291.581C882.55,303.031 873.621,307.496 875.222,306.695C905.754,291.429 951.667,310.65 919.191,299.825C906.074,295.453 868.386,303.93 868.351,303.947C864.221,306.013 861.375,302.262 866.977,246.237C862.785,279.775 857.675,280.162 868.351,312.192L865.603,308.069" style="fill:none;stroke:black;stroke-opacity:0.36;stroke-width:1px;"/>
    <path d="M1033.65,283.129C1033.36,282.542 1033.07,281.956 1032.77,281.37" style="fill:none;stroke:black;stroke-opacity:0.36;stroke-width:1px;"/>
    <path d="M1032.77,281.37L1029.26,280.491" style="fill:none;stroke:black;stroke-opacity:0.36;stroke-width:1px;"/>
    <path d="M1029.26,280.491C1030.04,278.659 1033.01,271.743 1045.96,262.023" style="fill:none;stroke:black;stroke-opacity:0.36;stroke-width:1px;"/>
    <path d="M1045.96,262.023L1044.21,254.988" style="fill:none;stroke:black;stroke-opacity:0.36;stroke-width:1px;"/>
    <path d="M239.655,911.558C222.807,919.982 227.754,928.955 202.555,954.154C200.926,955.783 202.945,956.512 201.181,958.276C179.571,979.886 214.1,964.048 249.273,981.635C254.769,984.383 254.769,984.383 254.769,984.383C255.094,979.839 256.628,958.357 246.525,928.047C246.129,926.858 239.655,907.436 236.907,915.68" style="fill:none;stroke:black;stroke-opacity:0.36;stroke-width:1px;"/>
    <path d="M235.533,914.306C237.157,911.057 250.964,865.441 243.777,888.199C243.117,890.288 235.533,914.306 235.533,914.306" style="fill:none;stroke:black;stroke-opacity:0.36;stroke-width:1px;"/>
    <path d="M206.678,973.39C203.929,981.635 202.763,989.801 202.555,991.253C204.045,982.316 203.985,982.898 208.052,974.764" style="fill:none;stroke:black;stroke-opacity:0.36;stroke-width:1px;"/>
    <path d="M238.281,977.512C234.688,984.697 229.159,1014.88 232.784,996.749C233.017,995.588 235.736,981.991 238.281,983.009" style="fill:none;stroke:black;stroke-opacity:0.36;stroke-width:1px;"/>
    <path d="M234.158,1020.11C234.616,1025.15 235.074,1030.18 235.533,1035.22" style="fill:none;stroke:black;stroke-opacity:0.36;stroke-width:1px;"/>
    <path d="M228.662,1025.6C232.764,1025.19 236.927,1026.01 241.029,1025.6C241.273,1025.58 241.029,1025.6 243.777,1024.23" style="fill:none;stroke:black;stroke-opacity:0.36;stroke-width:1px;"/>
    <path d="M191.563,1015.99C196.143,1015.53 200.723,1015.07 205.304,1014.61" style="fill:none;stroke:black;stroke-opacity:0.36;stroke-width:1px;"/>
    <path d="M1024.23,41.788C1034.16,36.824 1053.08,19.119 1073.7,8.811" style="fill:none;stroke:black;stroke-opacity:0.36;stroke-width:1px;"/>
    <path d="M26.033,1008.67C54.695,1011.85 54.619,1008.01 83.193,1010.87C124.943,1015.04 131.548,1010.91 129.361,1019.66C128.754,1022.09 128.262,1024.06 123.865,1050.44C118.368,1083.41 125.779,1024.13 126.063,1021.86C125.894,1023.72 125.188,1023.14 122.765,1044.94C123.733,1034.3 122.704,1034.5 123.865,1024.06C121.354,1041.63 122.177,1041.47 119.468,1048.24C119.674,1045.97 118.864,1046.15 120.649,1019.81C113.401,1019.53 27.711,1016.3 30.43,1010.87" style="fill:none;stroke:black;stroke-opacity:0.36;stroke-width:1px;"/>
    <g transform="matrix(1,0,0,1,91.4564,-193.465)">
        <path d="M318.429,741.553C312.529,759.254 312.941,783.213 311.834,798.713C316.314,792.741 322.344,772.198 333.819,749.248C335.092,746.702 333.911,771.498 333.819,773.431C338.983,760.52 355.984,730.38 356.903,729.461C361.598,724.767 356.137,743.084 359.101,737.156C364.54,726.279 361.153,720.91 372.292,721.767C383.331,722.616 417.212,714.561 417.361,720.668C413.737,716.137 407.322,713.761 412.964,715.171C416.128,715.962 437.619,709.048 441.544,712.973C441.741,713.17 443.119,715.696 438.246,714.072C435.542,713.171 435.729,713.569 432.75,712.973C436.553,712.43 484.689,705.553 478.918,699.782C473.911,694.776 473.65,704.641 458.032,703.08C441.8,701.456 442.187,698.724 425.715,700.222C458.439,677.266 463.22,678.192 460.231,676.698C456.52,674.843 431.656,693.298 406.021,696.774C412.779,685.4 414.316,686.947 422.857,676.698C442.009,653.716 413.33,673.217 386.582,686.591C367.217,696.274 388.431,679.783 405.269,650.316C400.31,654.567 402.616,656.267 349.208,709.675C341.94,716.943 341.592,709.754 330.521,698.683C324.592,692.754 338.262,726.21 326.124,714.072C316.559,704.507 309.005,716.95 319.529,723.965C333.882,733.534 311.841,718.465 296.445,726.164C294.677,727.047 295.523,728.451 317.33,739.355C319.25,740.314 316.107,739.602 315.132,741.553C315.132,741.553 312.757,747.489 312.933,747.049" style="fill:none;stroke:black;stroke-opacity:0.36;stroke-width:1px;"/>
    </g>
    <g transform="matrix(1,0,0,1,91.4564,-193.465)">
        <path d="M325.025,775.629C327.935,810.557 318.305,874.073 319.529,873.461C342.613,861.919 374.614,877.92 378.887,880.057C390.115,885.67 396.251,865.758 397.574,864.667" style="fill:none;stroke:black;stroke-opacity:0.36;stroke-width:1px;"/>
    </g>
    <g transform="matrix(1,0,0,1,91.4564,-193.465)">
        <path d="M363.498,810.805C363.132,811.904 362.765,813.003 362.399,814.103C361.046,818.162 359.08,825.718 360.2,821.797C364.684,815.52 367.645,806.308 365.697,814.103C362.399,827.293 368.856,811.151 368.994,810.805L368.994,819.599C368.994,818.89 368.994,806.408 370.094,810.805C370.2,811.231 372.449,820.227 374.49,814.103C374.606,813.755 375.501,813.747 375.59,814.103C375.61,814.182 375.058,823.393 377.788,815.202C378.856,816.27 377.819,818.531 378.887,819.599C380.242,820.953 377.234,811.923 376.689,814.103C376.604,814.444 374.805,821.64 372.292,814.103C371.412,811.463 370.271,818.854 368.994,816.301C368.69,815.693 369.371,815.831 375.336,810.636C376.12,812.798 375.905,815.238 376.689,817.4C378.101,821.295 377.083,816.613 378.887,813.003L381.086,817.4L381.086,813.003C381.262,813.443 383.284,818.5 383.284,818.5C386.577,820.146 383.596,817.255 384.384,814.103C384.61,814.103 388.781,825.855 388.781,814.103C388.781,813.663 389.69,813.723 392.078,818.5C395.816,825.974 394.322,815.516 394.277,815.202C394.952,816.553 394.7,818.248 395.376,819.599C397.884,824.616 395.578,818.385 396.475,813.003L399.773,819.599L399.773,816.301C399.949,816.741 405.269,830.042 405.269,818.5C405.269,818.251 405.269,818.5 407.468,820.698C408.567,821.797 409.666,822.896 410.765,823.996C420.658,833.889 409.844,820.912 409.666,820.698C415.862,826.894 423.243,837.216 417.361,828.393C413.934,823.253 409.494,817.229 414.063,821.797C415.574,823.309 425.166,829.246 426.155,829.858C425.778,829.261 414.563,811.504 419.559,823.996C426.493,841.33 424.042,821.129 423.956,820.698C440.811,854.408 415.584,819.09 415.162,818.5C415.162,818.5 418.724,825.623 418.46,825.095C417.867,823.909 417.783,824.008 408.127,812.564L409.666,821.797C407.468,819.232 405.269,816.667 403.071,814.103C403.273,814.71 405.709,822.017 405.269,821.797C399.939,819.132 403.052,810.824 398.674,815.202C392.735,821.141 392.154,816.404 389.88,816.301C374.938,815.622 358.504,820.617 371.193,813.003C368.261,815.568 365.33,818.133 362.399,820.698C363.767,819.558 370.643,813.828 381.086,808.606C383.598,807.35 382.273,812.652 382.185,813.003C381.943,813.973 387.228,812.206 387.681,811.904C390.672,809.91 390.47,816.81 393.178,814.103" style="fill:none;stroke:black;stroke-opacity:0.36;stroke-width:1px;"/>
    </g>
    <path d="M298.643,632.729C305.889,627.898 304.525,626.609 311.834,621.736C339.004,603.623 341.559,608.67 367.895,589.858C350.119,595.784 327.654,602.117 345.91,597.553C361.808,593.579 378.556,583.594 366.796,595.355C359.836,602.315 357.059,612.942 358.002,612.942" style="fill:none;stroke:black;stroke-opacity:0.36;stroke-width:1px;"/>
    <path d="M495.406,8.362C494.221,11.92 492.109,18.256 465.727,44.637C499.747,55.977 500.646,58.342 502.002,55.63C503.56,52.513 504.2,51.233 531.681,23.752C519.006,21.217 519.449,21.14 507.498,17.156C506.225,16.732 490.185,11.385 493.208,8.362" style="fill:none;stroke:black;stroke-opacity:0.36;stroke-width:1px;"/>
    <path d="M470.124,46.836C470.485,50.444 474.386,89.459 481.116,90.805C502.521,95.086 502.881,95.422 504.2,94.103C538.002,60.301 537.364,58.387 536.078,54.53C530.086,36.555 529.417,31.578 527.284,35.843" style="fill:none;stroke:black;stroke-opacity:0.36;stroke-width:1px;"/>
    <path d="M499.803,58.927C500.19,60.472 499.698,60.284 502.002,78.714C503.191,88.227 509.513,98.133 505.3,89.706" style="fill:none;stroke:black;stroke-opacity:0.36;stroke-width:1px;"/>
    <path d="M994.46,808.606C988.822,806.727 986.985,800.197 966.979,815.202C929.048,843.65 987.859,904.251 1015.35,849.278C1029.4,821.171 982.341,804.183 981.269,803.11C980.783,802.625 977.696,799.538 974.673,808.606" style="fill:none;stroke:black;stroke-opacity:0.36;stroke-width:1px;"/>
    <path d="M983.467,818.5C956.824,831.821 967.642,849.714 973.574,843.782C973.667,843.689 968.631,837.46 980.17,831.69C991.36,826.095 981.762,823.503 981.269,823.996" style="fill:none;stroke:black;stroke-opacity:0.36;stroke-width:1px;"/>
    <path d="M461.33,103.996C462.034,106.282 470.124,132.576 470.124,132.576" style="fill:none;stroke:black;stroke-opacity:0.36;stroke-width:1px;"/>
    <path d="M460.231,107.294C463.59,97.217 468.084,104.155 470.124,106.195C478.6,114.67 463.91,116.851 465.727,120.485" style="fill:none;stroke:black;stroke-opacity:0.36;stroke-width:1px;"/>
    <path d="M484.414,123.782C465.849,120.688 479.329,131.305 480.017,131.477C485.825,132.929 492.038,119.128 477.819,122.683" style="fill:none;stroke:black;stroke-opacity:0.36;stroke-width:1px;"/>
    <path d="M488.811,101.798C493.659,106.646 492.693,115.641 496.506,127.08L494.307,123.782" style="fill:none;stroke:black;stroke-opacity:0.36;stroke-width:1px;"/>
    <path d="M493.208,121.584C487.888,116.264 487.291,125.56 489.91,128.179C492.128,130.397 493.224,132.543 495.406,128.179" style="fill:none;stroke:black;stroke-opacity:0.36;stroke-width:1px;"/>
    <path d="M511.895,100.698C497.468,105.507 502.291,136.414 516.292,127.08" style="fill:none;stroke:black;stroke-opacity:0.36;stroke-width:1px;"/>
    <path d="M519.59,111.691C519.815,112.929 523.254,131.843 526.185,125.981C530.175,118.002 530.404,117.009 523.987,110.591" style="fill:none;stroke:black;stroke-opacity:0.36;stroke-width:1px;"/>
    <path d="M529.483,97.401C531.908,107.102 538.133,125.549 534.979,116.088C530.95,104.002 541.061,112.645 540.475,114.988C540.303,115.676 537.177,128.179 532.781,119.385" style="fill:none;stroke:black;stroke-opacity:0.36;stroke-width:1px;"/>
    <path d="M542.674,108.393C543.405,108.247 560.994,104.729 549.269,101.798C536.492,98.603 547.614,128.191 554.765,113.889" style="fill:none;stroke:black;stroke-opacity:0.36;stroke-width:1px;"/>
    <path d="M551.468,89.706C556.145,96.722 555.47,97.091 554.765,98.5" style="fill:none;stroke:black;stroke-opacity:0.36;stroke-width:1px;"/>
    <path d="M548.17,94.103C550.735,92.271 553.3,90.439 555.864,88.607" style="fill:none;stroke:black;stroke-opacity:0.36;stroke-width:1px;"/>
    <path d="M555.864,95.202C556.597,92.271 557.33,89.34 558.063,86.408C558.239,86.848 560.261,91.904 560.261,91.904C562.133,91.904 560.228,80.845 563.559,87.507C563.843,88.075 565.758,91.904 567.956,94.103" style="fill:none;stroke:black;stroke-opacity:0.36;stroke-width:1px;"/>
    <g transform="matrix(1.14103,0,0,1.05543,-231.768,144.65)">
        <path d="M399.773,543.69C400.843,543.156 400.792,543.717 414.063,539.294C429.109,534.278 429.581,529.088 429.452,530.5C427.429,552.751 434.503,551.355 440.445,581.065C442.312,590.402 442.596,553.49 443.742,555.782C444.475,557.248 450.338,568.973 451.437,571.171C463.715,595.727 451.813,552.801 454.735,538.194C456.01,531.82 452.241,530.098 458.032,527.202C460.005,526.216 459.406,525.966 461.33,525.003C462.303,524.517 474.207,518.565 474.521,521.706C479.094,567.435 494.745,601.071 485.513,604.148C469.724,609.412 468.655,614.771 461.33,607.446C455.454,601.57 455.247,591.62 452.536,599.752C451.193,603.78 452.044,620.21 441.544,622.835C430.758,625.532 427.458,628.943 423.956,618.439C415.952,594.426 412.5,596.162 407.468,581.065C401.913,564.401 401.195,565.221 393.178,549.187C392.791,548.413 389.911,544.523 395.376,545.889" style="fill:none;stroke:black;stroke-opacity:0.36;stroke-width:0.91px;"/>
    </g>
    <g transform="matrix(1.14103,0,0,1.05543,-231.768,144.65)">
        <path d="M394.277,548.087C400.715,540.479 396.929,536.944 406.368,533.797C420.963,528.933 420.124,527.588 433.849,521.706C425.196,536.127 423.828,535.868 422.857,534.897" style="fill:none;stroke:black;stroke-opacity:0.36;stroke-width:0.91px;"/>
    </g>
    <g transform="matrix(1.14103,0,0,1.05543,-231.768,144.65)">
        <path d="M431.651,522.805C429.036,538.496 439.345,543.31 439.345,553.584C439.345,554.38 441.059,536.125 449.239,552.484C455.468,564.942 457.284,563.126 458.032,562.378" style="fill:none;stroke:black;stroke-opacity:0.36;stroke-width:0.91px;"/>
    </g>
    <g transform="matrix(1.14103,0,0,1.05543,-231.768,144.65)">
        <path d="M454.735,532.698C456.136,520.087 455.701,519.096 456.933,519.507C459.406,520.331 484.401,509.628 478.918,515.11C478.617,515.412 473.359,524.941 471.223,522.805" style="fill:none;stroke:black;stroke-opacity:0.36;stroke-width:0.91px;"/>
    </g>
    <g transform="matrix(1.14103,0,0,1.05543,-231.768,144.65)">
        <path d="M478.918,517.309C482.939,541.432 503.615,595.647 491.01,601.95" style="fill:none;stroke:black;stroke-opacity:0.36;stroke-width:0.91px;"/>
    </g>
    <g transform="matrix(1.14103,0,0,1.05543,-231.768,144.65)">
        <path d="M449.239,619.538C451.437,615.141 458.248,608.33 459.132,607.446" style="fill:none;stroke:black;stroke-opacity:0.36;stroke-width:0.91px;"/>
    </g>
    <g transform="matrix(1.14103,0,0,1.05543,-231.768,144.65)">
        <path d="M497.605,567.874C500.088,562.907 526.413,537.738 512.994,564.576C504.776,581.012 516.242,583.363 515.193,585.461C504.2,607.446 504.2,570.558 504.2,568.973C504.2,563.593 503.62,571.461 499.803,573.37C486.613,579.965 500.463,566.115 500.903,565.675" style="fill:none;stroke:black;stroke-opacity:0.36;stroke-width:0.91px;"/>
    </g>
    <g transform="matrix(1.14103,0,0,1.05543,-231.768,144.65)">
        <path d="M502.002,534.897C483.504,544.146 501.152,564.076 507.498,551.385C516.921,532.54 498.981,540.669 497.605,539.294" style="fill:none;stroke:black;stroke-opacity:0.36;stroke-width:0.91px;"/>
    </g>
    <g transform="matrix(1,0,0,1,34.579,-42.8635)">
        <path d="M533.88,512.912L533.88,511.813" style="fill:none;stroke:black;stroke-opacity:0.36;stroke-width:1px;"/>
    </g>
    <path d="M377.912,457.551C377.386,447.023 375.05,435.257 375.751,436.659C375.989,437.135 383.005,457.128 380.794,443.863C379.469,435.915 379.304,436.065 378.633,428.015C381.161,433.914 381.411,433.711 383.315,439.901C385.095,445.684 386.397,446.864 386.557,447.105" style="fill:none;stroke:black;stroke-opacity:0.36;stroke-width:1px;"/>
    <path d="M389.079,438.46C389.047,438.174 389.328,423.139 391.96,436.299C392.816,440.58 391.808,446.897 396.643,442.062" style="fill:none;stroke:black;stroke-opacity:0.36;stroke-width:1px;"/>
    <path d="M391.24,438.821C390.95,439.786 389.776,439.361 390.159,442.423C390.978,448.972 393.317,441.954 393.401,441.702" style="fill:none;stroke:black;stroke-opacity:0.36;stroke-width:1px;"/>
    <path d="M398.804,428.375C395.558,431.621 394.203,431.78 396.283,435.939C396.962,437.297 402.527,433.536 400.245,438.1C400.062,438.465 398.084,442.423 396.643,441.702" style="fill:none;stroke:black;stroke-opacity:0.36;stroke-width:1px;"/>
    <path d="M403.126,432.697C394.72,435.85 401.6,442.148 404.207,439.541C409.61,434.138 401.604,432.137 400.965,431.977" style="fill:none;stroke:black;stroke-opacity:0.36;stroke-width:1px;"/>
    <path d="M405.648,431.617C405.678,431.253 406.326,423.48 407.088,427.294C408.632,435.013 408.817,437.227 408.889,438.1C408.29,430.607 406.645,421.818 409.61,428.735C409.854,429.304 414.501,440.148 416.454,432.337" style="fill:none;stroke:black;stroke-opacity:0.36;stroke-width:1px;"/>
    <path d="M393.761,475.561C392.832,453.272 392.936,450.859 393.761,452.508C394.26,453.506 405.585,470.455 400.965,465.835" style="fill:none;stroke:black;stroke-opacity:0.36;stroke-width:1px;"/>
    <path d="M393.761,463.674C395.711,461.015 394.849,460.308 399.524,457.191" style="fill:none;stroke:black;stroke-opacity:0.36;stroke-width:1px;"/>
    <path d="M401.686,458.271C401.936,454.268 400.495,449.822 402.766,453.229C403.125,453.767 402.849,453.796 405.648,460.793C404.303,458.103 403.857,455.54 403.775,455.066L405.568,456.75C405.824,454.698 405.393,452.64 406.728,454.309C409.798,458.146 410.042,458.199 410.33,457.911" style="fill:none;stroke:black;stroke-opacity:0.36;stroke-width:1px;"/>
    <path d="M413.212,454.309C411.315,444.823 413.596,444.272 413.932,444.944C414.348,445.776 416.394,449.867 417.174,456.11C413.613,447.207 413.499,456.899 413.572,457.191C413.648,457.493 415.473,460.394 416.814,455.03" style="fill:none;stroke:black;stroke-opacity:0.36;stroke-width:1px;"/>
    <path d="M420.776,440.261C421.885,436.566 421.847,436.709 422.577,433.057C422.751,434.794 423.203,439.317 427.163,454.381C424.61,447.406 423.345,448.138 422.937,448.546C421.719,449.764 422.098,458.45 424.378,455.03C424.677,454.582 424.183,454.533 426.179,448.546" style="fill:none;stroke:black;stroke-opacity:0.36;stroke-width:1px;"/>
    <path d="M428.34,445.304C432.632,441.549 438.49,437.708 433.383,440.261C429.483,442.212 430.255,447.692 430.501,448.186C431.87,450.923 434.301,443.63 434.464,443.143" style="fill:none;stroke:black;stroke-opacity:0.36;stroke-width:1px;"/>
    <path d="M434.824,438.821C437.293,446.229 439.189,444.7 439.506,444.224C441.427,441.342 440.058,437.234 439.866,436.659" style="fill:none;stroke:black;stroke-opacity:0.36;stroke-width:1px;"/>
    <path d="M438.786,436.659C439.383,438.092 441.741,446.165 443.468,440.982" style="fill:none;stroke:black;stroke-opacity:0.36;stroke-width:1px;"/>
    <path d="M447.07,430.176C446.856,430.513 442.982,429.437 444.909,435.219C445.708,437.614 456.77,437.157 447.791,443.143" style="fill:none;stroke:black;stroke-opacity:0.36;stroke-width:1px;"/>
    <g transform="matrix(1,0,0,1,91.4564,-193.465)">
        <path d="M383.284,721.767C361.429,729.052 362.652,802.448 393.178,766.835C420.111,735.413 385.449,710.91 381.086,728.362" style="fill:none;stroke:black;stroke-opacity:0.36;stroke-width:1px;"/>
    </g>
    <g transform="matrix(1,0,0,1,91.4564,-193.465)">
        <path d="M418.46,731.66C390.976,726.163 417.629,795.709 428.353,763.538C428.957,761.726 439.187,746.839 432.75,738.255C431.56,736.668 420.03,721.296 408.567,732.759" style="fill:none;stroke:black;stroke-opacity:0.36;stroke-width:1px;"/>
    </g>
    <g transform="matrix(1,0,0,1,91.4564,-193.465)">
        <path d="M383.284,740.454C382.353,746.044 381.578,746.442 385.483,750.347C386.153,751.017 388.489,751.869 389.88,739.355C388.754,758.491 391.584,761.218 385.483,762.438C375.022,764.531 375.824,738.49 379.987,742.652" style="fill:none;stroke:black;stroke-opacity:0.36;stroke-width:1px;"/>
    </g>
    <g transform="matrix(1,0,0,1,91.4564,-193.465)">
        <path d="M384.384,733.858C376.139,737.98 382.728,741.275 383.284,741.553C391.345,745.584 384.74,732.372 384.384,731.66" style="fill:none;stroke:black;stroke-opacity:0.36;stroke-width:1px;"/>
    </g>
    <g transform="matrix(1,0,0,1,91.4564,-193.465)">
        <path d="M418.46,738.255C418.393,738.922 414.979,773.064 421.758,745.95C423.639,738.425 427.62,765.003 423.956,765.736C415.179,767.492 412.347,752.68 417.361,742.652" style="fill:none;stroke:black;stroke-opacity:0.36;stroke-width:1px;"/>
    </g>
    <g transform="matrix(1,0,0,1,91.4564,-193.465)">
        <path d="M417.361,736.057C418.065,738.523 416.656,741.285 417.361,743.751C418.918,749.201 417.759,742.555 419.559,737.156" style="fill:none;stroke:black;stroke-opacity:0.36;stroke-width:1px;"/>
    </g>
    <g transform="matrix(1,0,0,1,91.4564,-193.465)">
        <path d="M401.971,771.232C402.595,771.482 408.468,762.141 412.964,775.629C413.7,777.838 430.002,826.744 407.468,804.209" style="fill:none;stroke:black;stroke-opacity:0.36;stroke-width:1px;"/>
    </g>
    <g transform="matrix(1,0,0,1,91.4564,-193.465)">
        <path d="M415.162,833.889C390.255,825.586 389.873,822.166 364.597,830.591C346.665,836.568 352.961,842.194 354.704,861.37C383.724,842.023 400.019,858.319 397.574,855.874" style="fill:none;stroke:black;stroke-opacity:0.36;stroke-width:1px;"/>
    </g>
    <g transform="matrix(1,0,0,1,91.4564,-193.465)">
        <path d="M395.376,830.591C394.61,838.254 398.764,846.071 393.178,840.484C391.726,839.033 391.437,839.616 363.498,838.286" style="fill:none;stroke:black;stroke-opacity:0.36;stroke-width:1px;"/>
    </g>
    <path d="M461.33,409.584C466.678,406.91 471.824,394.993 499.803,381.004C515.278,373.266 521.788,365.99 521.788,367.813C521.788,373.888 464.976,400.817 456.933,412.881C493.414,388.561 489.015,382.551 518.49,367.813C526.309,363.903 516.931,373.562 528.384,476.637" style="fill:none;stroke:black;stroke-opacity:0.36;stroke-width:1px;"/>
    <path d="M455.834,406.286C463.325,391.304 460.34,390.641 466.826,375.507C462.951,387.133 463.649,386.995 456.933,420.576C456.933,399.24 465.355,423.138 484.414,432.668C486.775,433.848 469.025,424.973 455.834,416.179C455.209,415.762 462.063,420.332 464.628,419.477" style="fill:none;stroke:black;stroke-opacity:0.36;stroke-width:1px;"/>
    <path d="M532.781,885.553C534.093,880.304 548.78,821.553 580.048,837.187C608.163,851.244 574.322,929.637 647.101,893.248C661.796,885.9 678.162,830.843 672.383,848.179" style="fill:none;stroke:black;stroke-opacity:0.36;stroke-width:1px;"/>
    <path d="M530.582,952.606C531.844,947.558 531.132,947.658 532.781,942.713C536.646,931.117 540.435,936.462 540.475,937.217C540.558,938.8 544.189,1007.78 547.071,955.904C547.618,946.046 542.51,925.289 553.666,914.133C558.731,909.068 561.99,921.188 559.162,943.812C554.876,978.101 569.58,973.59 570.155,971.293C571.689,965.156 572.575,888.196 585.544,914.133C594.128,931.301 590.232,1003.11 600.933,960.301C606.419,938.359 602.263,937.855 603.132,936.118C610.413,921.555 612.259,966.995 617.422,951.507C619.052,946.615 621.149,935.209 625.116,947.11C627.423,954.029 633.388,936.172 637.208,943.812C639.756,948.908 640.977,953.392 642.704,948.209C642.943,947.492 648.64,930.402 650.399,942.713C650.501,943.431 654.246,969.645 659.193,944.912C659.385,943.948 666.445,922.916 671.284,947.11C671.609,948.735 677.402,987.351 683.376,951.507C684.429,945.189 684.35,945.539 685.574,939.416" style="fill:none;stroke:black;stroke-opacity:0.36;stroke-width:1px;"/>
    <path d="M754.826,900.942L754.826,902.041" style="fill:none;stroke:black;stroke-opacity:0.36;stroke-width:1px;"/>
    <path d="M704.261,963.599C704.462,961.997 709.025,925.492 714.154,946.011C718.231,962.317 719.577,964.624 718.551,963.599" style="fill:none;stroke:black;stroke-opacity:0.36;stroke-width:1px;"/>
    <path d="M705.361,958.103C706.112,957.351 709.208,954.255 717.452,952.606" style="fill:none;stroke:black;stroke-opacity:0.36;stroke-width:1px;"/>
    <path d="M728.445,961.4C729.305,952.795 731.383,941.973 732.841,940.515C733.644,939.712 734.945,939.761 738.942,953.321C740.086,947.284 740.301,947.816 742.735,940.515C743.498,941.85 751.528,955.904 752.628,957.003" style="fill:none;stroke:black;stroke-opacity:0.36;stroke-width:1px;"/>
    <path d="M525.086,781.126C526.671,758.937 524.663,758.887 529.483,749.248C535.194,737.825 530.717,841.604 537.177,789.919C540.697,761.761 537.91,726.896 544.872,754.744C545.887,758.802 547.182,829.7 552.567,786.622C553.445,779.594 550.811,730.79 558.063,752.545C561.334,762.359 558.013,836.339 566.857,792.118C570.169,775.556 562.834,746.324 572.353,755.843C573.043,756.533 573.359,804.116 578.948,809.706C583.915,814.673 570.911,717.853 582.246,774.53C582.632,776.46 577.424,805.646 581.147,807.507C585.38,809.624 579.712,720.852 587.742,769.034C591.769,793.191 587.265,824.183 592.139,799.813C594.508,787.97 593.868,727.901 598.735,766.835C602.202,794.574 601.983,826.343 610.826,799.813C611.527,797.711 617.913,747.915 624.017,772.332C624.425,773.962 622.967,773.726 626.216,793.217C626.876,797.177 636.149,818.38 639.406,808.606C643.795,795.44 643.703,795.817 647.101,782.225C647.321,781.346 653.896,755.044 656.994,776.729C657.367,779.342 663.834,824.606 673.483,805.309C675.848,800.577 674.36,800.256 676.78,795.416" style="fill:none;stroke:black;stroke-opacity:0.36;stroke-width:1px;"/>
    <path d="M699.864,787.721C705.617,803.062 705.85,802.75 706.46,806.408C707.342,811.7 707.163,811.395 707.559,811.904" style="fill:none;stroke:black;stroke-opacity:0.36;stroke-width:1px;"/>
    <path d="M699.864,789.919C705.018,784.03 704.502,784.183 709.758,778.927" style="fill:none;stroke:black;stroke-opacity:0.36;stroke-width:1px;"/>
    <path d="M700.964,798.713C705.698,795.557 704.998,795.291 709.758,792.118" style="fill:none;stroke:black;stroke-opacity:0.36;stroke-width:1px;"/>
    <path d="M720.75,807.507C723.969,789.801 723.796,786.119 725.147,788.82C725.587,789.7 729.609,802.772 729.983,803.99C737.001,782.938 738.862,781.599 739.437,783.324C745.64,801.933 747.871,800.552 752.628,805.309" style="fill:none;stroke:black;stroke-opacity:0.36;stroke-width:1px;"/>
    <path d="M694.368,878.958C695.899,869.773 694.482,869.608 698.765,862.469C702.312,871.335 702.606,871.819 703.162,871.263C703.816,870.609 707.412,856.778 707.742,855.507C708.384,856.568 714.403,866.511 715.254,869.064C716.462,872.688 714.405,874.561 718.551,874.561" style="fill:none;stroke:black;stroke-opacity:0.36;stroke-width:1px;"/>
    <path d="M727.345,862.469C713.601,855.597 728.428,883.387 732.841,874.561C736.754,866.736 727.85,851.06 724.048,862.469" style="fill:none;stroke:black;stroke-opacity:0.36;stroke-width:1px;"/>
    <path d="M740.536,853.675C741.453,865.596 741.885,865.064 743.834,876.759C742.329,871.493 742.89,871.574 740.536,866.866" style="fill:none;stroke:black;stroke-opacity:0.36;stroke-width:1px;"/>
    <path d="M739.437,860.271C749.422,866.69 762.097,861.793 753.727,870.164C753.279,870.612 753.401,870.652 749.33,876.759L744.933,876.759" style="fill:none;stroke:black;stroke-opacity:0.36;stroke-width:1px;"/>
    <path d="M229.391,139.172C237.432,131.131 239.034,137.32 242.582,147.965C243.08,149.458 243.234,149.268 251.376,165.553" style="fill:none;stroke:black;stroke-opacity:0.36;stroke-width:1px;"/>
    <path d="M239.284,149.065C235.619,160.062 236.019,159.898 233.788,171.049" style="fill:none;stroke:black;stroke-opacity:0.36;stroke-width:1px;"/>
    <path d="M339.315,97.401C338.949,98.5 338.582,99.599 338.216,100.698" style="fill:none;stroke:black;stroke-opacity:0.36;stroke-width:1px;"/>
    <path d="M839.467,1064.73C846.202,1053.5 846.648,1054.25 855.956,1044.94C860.631,1040.27 859.064,1038.99 864.75,1036.15" style="fill:none;stroke:black;stroke-opacity:0.36;stroke-width:1px;"/>
    <path d="M890.032,1019.66C905.881,1008.34 904.657,1003.43 912.017,1000.97" style="fill:none;stroke:black;stroke-opacity:0.36;stroke-width:1px;"/>
    <path d="M938.399,981.186C938.399,981.186 958.625,960.961 960.383,959.202" style="fill:none;stroke:black;stroke-opacity:0.36;stroke-width:1px;"/>
    <path d="M988.964,940.515C991.043,939.128 1002.15,931.721 1013.15,920.728" style="fill:none;stroke:black;stroke-opacity:0.36;stroke-width:1px;"/>
    <path d="M1043.92,906.438C1044.6,905.875 1044.66,906.294 1052.72,899.843C1053.35,899.337 1058.21,895.446 1060.41,893.248" style="fill:none;stroke:black;stroke-opacity:0.36;stroke-width:1px;"/>
    <path d="M5.147,185.34C6.405,184.082 16.51,176.904 20.536,168.851C20.759,168.406 20.536,168.851 24.933,164.454" style="fill:none;stroke:black;stroke-opacity:0.36;stroke-width:1px;"/>
    <path d="M60.109,143.569C61.403,142.404 61.249,142.429 75.498,128.179" style="fill:none;stroke:black;stroke-opacity:0.36;stroke-width:1px;"/>
    <path d="M111.773,98.5C112.873,97.4 123.865,86.408 124.964,84.21" style="fill:none;stroke:black;stroke-opacity:0.36;stroke-width:1px;"/>
    <path d="M156.842,55.63C175.029,38.841 176.762,37.975 178.826,36.943" style="fill:none;stroke:black;stroke-opacity:0.36;stroke-width:1px;"/>
    <path d="M201.91,21.553C206.307,17.889 210.704,14.225 215.101,10.561C216.341,9.528 216.361,10.4 217.3,9.462" style="fill:none;stroke:black;stroke-opacity:0.36;stroke-width:1px;"/>
    <g transform="matrix(1.14103,0,0,1.05543,-271.224,189.889)">
        <path d="M460.834,595.251C453.772,591.72 462.352,597.206 465.877,604.256C469.614,611.73 466.45,586.524 469.119,594.531C470.701,599.278 471.205,598.873 474.161,602.815C474.402,598.253 474.642,593.69 474.882,589.128" style="fill:none;stroke:black;stroke-opacity:0.36;stroke-width:0.91px;"/>
    </g>
    <g transform="matrix(1.14103,0,0,1.05543,-271.224,189.889)">
        <path d="M479.564,586.606C478.982,590.684 479.666,590.514 481.005,594.531C482.443,598.844 482.541,599.118 482.806,598.853" style="fill:none;stroke:black;stroke-opacity:0.36;stroke-width:0.91px;"/>
    </g>
    <g transform="matrix(1.14103,0,0,1.05543,-271.224,189.889)">
        <path d="M487.489,585.166C485.009,583.926 484.137,593.34 487.129,596.332C490.023,599.226 491.558,594.784 492.532,593.81" style="fill:none;stroke:black;stroke-opacity:0.36;stroke-width:0.91px;"/>
    </g>
    <g transform="matrix(1.14103,0,0,1.05543,-271.224,189.889)">
        <path d="M495.413,580.843C498.876,591.233 499.015,603.032 499.015,593.81" style="fill:none;stroke:black;stroke-opacity:0.36;stroke-width:0.91px;"/>
    </g>
    <g transform="matrix(1.14103,0,0,1.05543,-271.224,189.889)">
        <path d="M497.935,587.327C498.293,586.611 501.537,580.123 502.977,578.682" style="fill:none;stroke:black;stroke-opacity:0.36;stroke-width:0.91px;"/>
    </g>
    <g transform="matrix(1.14103,0,0,1.05543,-271.224,189.889)">
        <path d="M499.015,586.606C499.015,588.17 503.735,588.606 509.821,591.649" style="fill:none;stroke:black;stroke-opacity:0.36;stroke-width:0.91px;"/>
    </g>
    <g transform="matrix(1.14103,0,0,1.05543,-271.224,189.889)">
        <path d="M510.181,575.801C512.342,577.962 514.941,588.356 515.224,589.488C515.34,589.951 517.151,593.918 520.627,586.967" style="fill:none;stroke:black;stroke-opacity:0.36;stroke-width:0.91px;"/>
    </g>
    <g transform="matrix(1.14103,0,0,1.05543,-271.224,189.889)">
        <path d="M513.063,582.284C515.648,580.992 515.785,581.363 517.745,579.402" style="fill:none;stroke:black;stroke-opacity:0.36;stroke-width:0.91px;"/>
    </g>
    <g transform="matrix(1.14103,0,0,1.05543,-271.224,189.889)">
        <path d="M510.541,576.881C511.79,573.967 511.892,573.909 514.864,572.919" style="fill:none;stroke:black;stroke-opacity:0.36;stroke-width:0.91px;"/>
    </g>
    <g transform="matrix(1.14103,0,0,1.05543,-271.224,189.889)">
        <path d="M523.509,570.037C527.951,583.364 526.755,583.907 527.831,584.445C532.817,586.938 541.728,566.499 522.068,568.957" style="fill:none;stroke:black;stroke-opacity:0.36;stroke-width:0.91px;"/>
    </g>
    <g transform="matrix(1.14103,0,0,1.05543,-271.224,189.889)">
        <path d="M467.678,615.782C469.116,613.626 468.852,610.392 469.479,612.901C469.677,613.692 471.784,622.122 470.92,622.986" style="fill:none;stroke:black;stroke-opacity:0.36;stroke-width:0.91px;"/>
    </g>
    <g transform="matrix(1.14103,0,0,1.05543,-271.224,189.889)">
        <path d="M466.597,609.299L466.597,608.578" style="fill:none;stroke:black;stroke-opacity:0.36;stroke-width:0.91px;"/>
    </g>
    <g transform="matrix(1.14103,0,0,1.05543,-271.224,189.889)">
        <path d="M474.522,613.261C476.017,605.784 475.271,616.2 476.683,619.024C479.233,624.125 472.939,614.676 477.763,611.46C478.12,611.222 478.302,611.453 479.564,616.503C480.049,618.439 480.732,618.577 482.086,617.223" style="fill:none;stroke:black;stroke-opacity:0.36;stroke-width:0.91px;"/>
    </g>
    <g transform="matrix(1.14103,0,0,1.05543,-271.224,189.889)">
        <path d="M482.086,609.659C482.285,609.427 484.247,607.138 484.607,606.778C484.641,606.744 485.825,623.295 488.209,616.143" style="fill:none;stroke:black;stroke-opacity:0.36;stroke-width:0.91px;"/>
    </g>
    <g transform="matrix(1.14103,0,0,1.05543,-271.224,189.889)">
        <path d="M483.166,612.541C484.118,611.589 484.159,611.817 484.967,610.74C485.078,610.592 486.048,609.299 486.408,608.939" style="fill:none;stroke:black;stroke-opacity:0.36;stroke-width:0.91px;"/>
    </g>
    <g transform="matrix(1.14103,0,0,1.05543,-271.224,189.889)">
        <path d="M490.731,612.541C491.051,612.167 497.754,604.346 492.892,606.778C489.25,608.598 492.284,621.68 497.574,611.1" style="fill:none;stroke:black;stroke-opacity:0.36;stroke-width:0.91px;"/>
    </g>
    <g transform="matrix(1.14103,0,0,1.05543,-271.224,189.889)">
        <path d="M499.375,605.697C499.953,604.348 500.094,602.807 500.456,604.256C501.575,608.731 501.474,608.615 501.897,613.261C501.063,606.593 499.496,605.096 505.499,602.095" style="fill:none;stroke:black;stroke-opacity:0.36;stroke-width:0.91px;"/>
    </g>
    <g transform="matrix(1.14103,0,0,1.05543,-271.224,189.889)">
        <path d="M505.859,607.858C510.211,604.05 511.234,600.321 509.101,602.455C506.409,605.146 505.542,615.124 511.262,607.498" style="fill:none;stroke:black;stroke-opacity:0.36;stroke-width:0.91px;"/>
    </g>
    <g transform="matrix(1.14103,0,0,1.05543,-271.224,189.889)">
        <path d="M515.584,599.213C515.368,599.559 511.414,605.886 516.305,604.256C522.523,602.183 517.232,612.104 513.063,610.019" style="fill:none;stroke:black;stroke-opacity:0.36;stroke-width:0.91px;"/>
    </g>
    <g transform="matrix(1.14103,0,0,1.05543,-271.224,189.889)">
        <path d="M519.907,599.934C520.079,599.703 522.068,597.052 522.068,597.052C522.068,597.95 521.859,597.76 520.987,608.218C521.242,607.927 523.509,605.337 524.229,604.616" style="fill:none;stroke:black;stroke-opacity:0.36;stroke-width:0.91px;"/>
    </g>
    <g transform="matrix(1.14103,0,0,1.05543,-271.224,189.889)">
        <path d="M520.267,602.815C522.937,601.035 522.82,601.08 525.31,599.213" style="fill:none;stroke:black;stroke-opacity:0.36;stroke-width:0.91px;"/>
    </g>
    <g transform="matrix(1.14103,0,0,1.05543,-271.224,189.889)">
        <path d="M527.111,598.493C527.418,598.862 528.244,598.124 528.551,598.493C529.665,599.829 528.991,599.935 528.551,603.896" style="fill:none;stroke:black;stroke-opacity:0.36;stroke-width:0.91px;"/>
    </g>
    <g transform="matrix(1.14103,0,0,1.05543,-271.224,189.889)">
        <path d="M527.111,593.81L527.111,592.37" style="fill:none;stroke:black;stroke-opacity:0.36;stroke-width:0.91px;"/>
    </g>
    <g transform="matrix(1.14103,0,0,1.05543,-271.224,189.889)">
        <path d="M531.073,596.332C531.225,596.087 533.207,592.917 533.234,593.45C533.276,594.285 533.482,598.418 532.874,603.896C533.529,594.066 534.322,593.814 535.035,594.171C535.5,594.403 534.448,594.797 537.196,600.294" style="fill:none;stroke:black;stroke-opacity:0.36;stroke-width:0.91px;"/>
    </g>
    <g transform="matrix(1.14103,0,0,1.05543,-271.224,189.889)">
        <path d="M541.158,592.73C541.147,592.76 538.918,594.338 539.357,597.412C539.753,600.186 542.764,591.156 542.959,590.569C543.305,597.826 543.027,597.664 543.319,604.977" style="fill:none;stroke:black;stroke-opacity:0.36;stroke-width:0.91px;"/>
    </g>
    <g transform="matrix(1.14103,0,0,1.05543,-271.224,189.889)">
        <path d="M537.916,605.337C538.483,606.186 540.594,611.713 541.879,607.858C543.067,604.294 542.579,604.356 543.319,600.654" style="fill:none;stroke:black;stroke-opacity:0.36;stroke-width:0.91px;"/>
    </g>
    <path d="M734.311,263.009C732.937,265.757 700.235,298.459 697.211,301.483C677.9,320.794 681.03,323.16 664.234,339.956" style="fill:none;stroke:black;stroke-opacity:0.36;stroke-width:1px;"/>
    <path d="M623.013,405.91C604.463,436.826 575.497,465.792 570.799,470.49" style="fill:none;stroke:black;stroke-opacity:0.36;stroke-width:1px;"/>
    <path d="M234.158,851.1C222.043,858.37 215.405,872.601 191.563,896.444C178.263,909.744 183.086,913.166 169.578,926.673" style="fill:none;stroke:black;stroke-opacity:0.36;stroke-width:1px;"/>
    <path d="M129.731,972.016C116.575,981.883 116.531,981.094 104.998,992.627C97.412,1000.21 99.227,1001.7 89.884,1006.37" style="fill:none;stroke:black;stroke-opacity:0.36;stroke-width:1px;"/>
    <path d="M1007.75,328.963C1004.09,331.16 961.903,356.469 963.776,359.192C968.503,355.895 1022.86,317.971 1022.86,317.971C1027.51,313.322 1018.76,316.969 958.28,368.811C987.127,347.175 987.358,348.088 1019.43,332.055C1016.07,335.968 1005.53,348.26 972.02,375.681C1001.36,361.011 998.117,356.909 1025.61,338.582C1022.03,342.158 972.707,391.482 983.013,385.299C986.881,382.978 986.167,382.513 1024.23,346.826C1001.46,375.295 998.7,372.932 980.265,404.536C989.182,394.628 989.453,395.419 998.127,385.299C999.446,383.76 1014.62,366.063 1014.62,366.063C996.401,402.492 973.62,448.454 994.005,412.78C1008.39,387.612 1008.85,384.275 1009.12,386.673C1009.53,390.402 1008.61,390.035 1005,433.391C1006.56,419.323 1018.04,353.108 1013.24,396.292C1010.46,421.324 1013.01,452.657 1015.99,434.765C1019.69,412.559 1017.96,412.859 1022.86,390.795C1024.31,419.687 1022.41,431.535 1026.98,422.398C1031.53,413.302 1015.48,404.358 1022.86,367.437C1026.12,378.865 1022.15,382.958 1033.85,385.299" style="fill:none;stroke:black;stroke-opacity:0.36;stroke-width:1px;"/>
    <path d="M1050.34,579.04L1053.09,576.291" style="fill:none;stroke:black;stroke-opacity:0.36;stroke-width:1px;"/>
    <path d="M24.599,512.633C23.33,497.932 21.78,491.791 36.022,494.116C38.512,489.105 36.314,479.209 49.387,487.47L54.795,479.459L62.086,482.98C64.754,479.724 67.423,476.468 70.091,473.212L74.582,477.999C79.102,468.996 82.198,468.396 88.709,476.115" style="fill:none;stroke:black;stroke-opacity:0.36;stroke-width:1px;"/>
    <path d="M26.678,492.475C17.565,474.248 26.026,471.935 17.059,454.001C7.204,434.29 19.312,395.233 55.533,422.398C70.769,433.826 77.066,464.092 78.891,467.742" style="fill:none;stroke:black;stroke-opacity:0.36;stroke-width:1px;"/>
    <path d="M19.808,438.887C23.865,455.115 25.739,454.941 26.678,454.001" style="fill:none;stroke:black;stroke-opacity:0.36;stroke-width:1px;"/>
    <path d="M21.869,444.851C22.819,443.901 24.243,444.069 25.039,441.681C26.35,437.747 20.759,437.316 19.564,438.511" style="fill:none;stroke:black;stroke-opacity:0.36;stroke-width:1px;"/>
    <path d="M23.022,444.274C27.537,445.565 26.875,446.558 30.802,448.885" style="fill:none;stroke:black;stroke-opacity:0.36;stroke-width:1px;"/>
    <path d="M30.514,437.071C30.803,436.781 34.729,447.102 33.684,446.58" style="fill:none;stroke:black;stroke-opacity:0.36;stroke-width:1px;"/>
    <path d="M27.921,437.647C29.765,435.803 33.719,435.144 34.26,435.053" style="fill:none;stroke:black;stroke-opacity:0.36;stroke-width:1px;"/>
    <path d="M31.667,447.444C33.303,446.626 35.856,445.849 37.142,444.563" style="fill:none;stroke:black;stroke-opacity:0.36;stroke-width:1px;"/>
    <path d="M40.023,433.613C42.474,442.191 42.284,443.211 42.617,442.546" style="fill:none;stroke:black;stroke-opacity:0.36;stroke-width:1px;"/>
    <path d="M39.159,433.324C39.616,433.263 44.585,432.601 44.922,433.613C45.498,435.342 41.829,437.176 41.464,437.359" style="fill:none;stroke:black;stroke-opacity:0.36;stroke-width:1px;"/>
    <path d="M28.209,461.276C29.354,465.856 29.424,465.729 30.802,470.209C31.258,471.69 31.378,473.556 31.378,471.938" style="fill:none;stroke:black;stroke-opacity:0.36;stroke-width:1px;"/>
    <path d="M28.209,461.564L29.361,459.547" style="fill:none;stroke:black;stroke-opacity:0.36;stroke-width:1px;"/>
    <path d="M29.073,467.039C30.57,465.114 30.35,464.96 32.531,463.869C32.697,463.786 34.26,463.005 34.548,462.717" style="fill:none;stroke:black;stroke-opacity:0.36;stroke-width:1px;"/>
    <path d="M35.124,459.835C39.079,465.372 36.212,468.693 38.582,467.903C39.966,467.442 40.771,465.831 40.888,465.598" style="fill:none;stroke:black;stroke-opacity:0.36;stroke-width:1px;"/>
    <path d="M42.04,466.751C42.084,465.781 42.284,465.814 42.905,454.648C44.057,458.106 45.21,461.564 46.363,465.022" style="fill:none;stroke:black;stroke-opacity:0.36;stroke-width:1px;"/>
    <path d="M42.328,463.293C44.637,460.985 44.58,461.015 47.515,459.547" style="fill:none;stroke:black;stroke-opacity:0.36;stroke-width:1px;"/>
    <path d="M50.109,454.936C45.87,457.359 46.283,459.712 50.973,461.276C52.404,461.753 54.906,465.213 49.532,464.446" style="fill:none;stroke:black;stroke-opacity:0.36;stroke-width:1px;"/>
    <path d="M56.448,452.055C58.965,463.38 58.945,463.388 59.042,463.581" style="fill:none;stroke:black;stroke-opacity:0.36;stroke-width:1px;"/>
    <path d="M59.042,452.631C60.336,457.377 59.866,457.368 61.059,462.14" style="fill:none;stroke:black;stroke-opacity:0.36;stroke-width:1px;"/>
    <path d="M57.889,458.971C60.692,457.246 60.532,457.217 63.364,455.801" style="fill:none;stroke:black;stroke-opacity:0.36;stroke-width:1px;"/>
    <path d="M27.632,461.276C30.525,458.673 30.618,458.965 33.684,456.665" style="fill:none;stroke:black;stroke-opacity:0.36;stroke-width:1px;"/>
    <path d="M23.31,415.747C28.757,411.662 31.951,411.57 35.124,409.984C42.944,406.074 58.722,424.52 62.499,426.409C62.672,426.495 72.467,436.259 76.043,443.41C81.526,454.376 79.712,454.915 82.671,466.751" style="fill:none;stroke:black;stroke-opacity:0.36;stroke-width:1px;"/>
    <path d="M788.64,226.717C793.672,223.362 792.299,221.836 845.801,177.251C849.019,174.569 884.64,144.885 886.472,144.274" style="fill:none;stroke:black;stroke-opacity:0.36;stroke-width:1px;"/>
    <path d="M935.938,113.495C955.313,96.542 955.339,97.025 974.411,79.419C979.125,75.068 980.045,77.083 984.304,72.824" style="fill:none;stroke:black;stroke-opacity:0.36;stroke-width:1px;"/>
    <path d="M4.517,1030.07C4.948,1029.85 4.762,1029.62 9.12,1026.17C10.073,1025.42 15.595,1021.04 21.867,1017.91L21.513,1018.5" style="fill:none;stroke:black;stroke-opacity:0.36;stroke-width:1px;"/>
    <path d="M11.953,1024.05C13.265,1020.11 11.85,1025.25 12.307,1029.36C13.103,1036.53 12.699,1037.74 12.897,1037.15" style="fill:none;stroke:black;stroke-opacity:0.36;stroke-width:1px;"/>
    <path d="M18.444,1023.81C18.69,1025.78 18.402,1035.11 18.798,1034.31" style="fill:none;stroke:black;stroke-opacity:0.36;stroke-width:1px;"/>
    <path d="M21.985,1023.46C22.511,1028.19 22.468,1028.15 22.103,1032.9" style="fill:none;stroke:black;stroke-opacity:0.36;stroke-width:1px;"/>
    <path d="M18.562,1029.47C20.45,1028.37 20.539,1028.66 22.457,1027.7" style="fill:none;stroke:black;stroke-opacity:0.36;stroke-width:1px;"/>
    <path d="M27.532,1021.8C27.601,1022.62 27.883,1026.02 27.65,1032.07C30.352,1030.91 30.088,1030.31 32.962,1029.83" style="fill:none;stroke:black;stroke-opacity:0.36;stroke-width:1px;"/>
    <path d="M27.887,1026.88C29.429,1026.36 29.377,1026.34 30.955,1025.82" style="fill:none;stroke:black;stroke-opacity:0.36;stroke-width:1px;"/>
    <path d="M26.824,1021.92C27.21,1021.61 29.721,1019.6 32.254,1018.97" style="fill:none;stroke:black;stroke-opacity:0.36;stroke-width:1px;"/>
    <path d="M7.94,1043.52C9.727,1052.46 10.247,1052.33 11.008,1061.46C11.031,1061.73 12.053,1066.58 12.189,1066.54C16.231,1065.19 15.774,1064.07 19.979,1063.23C24.6,1062.31 26.022,1053.19 19.388,1053.79C24.657,1052.03 23.779,1046.43 20.215,1043.76C12.22,1037.76 9.893,1042.59 9.946,1042.69" style="fill:none;stroke:black;stroke-opacity:0.36;stroke-width:1px;"/>
    <path d="M13.723,1046.83C14.833,1050.16 14.702,1050.94 15.139,1050.72C15.658,1050.46 17.564,1050.15 18.208,1049.19C20.47,1045.79 12.97,1044.99 13.605,1047.53" style="fill:none;stroke:black;stroke-opacity:0.36;stroke-width:1px;"/>
    <path d="M15.021,1058.39C15.108,1058.57 14.894,1058.6 15.611,1060.75C15.731,1061.11 20.34,1059.94 19.624,1058.51C18.509,1056.28 12.13,1058.51 13.959,1058.51" style="fill:none;stroke:black;stroke-opacity:0.36;stroke-width:1px;"/>
    <path d="M29.185,1038.56C24.565,1043.84 24.827,1063.58 34.732,1056.15C39.743,1052.39 41.347,1040.95 33.198,1038.92C31.184,1038.41 27.841,1037.4 26.942,1040.1" style="fill:none;stroke:black;stroke-opacity:0.36;stroke-width:1px;"/>
    <path d="M31.427,1045.17C31.357,1045.53 29.969,1046.35 30.955,1049.3C32.073,1052.66 34.115,1050.03 34.496,1048.12C34.941,1045.9 33.008,1043.17 30.719,1044.7" style="fill:none;stroke:black;stroke-opacity:0.36;stroke-width:1px;"/>
    <path d="M39.453,1035.85C39.912,1039.52 42.786,1039.55 44.175,1053.43C44.512,1056.81 44.685,1057.06 44.883,1056.86C46.722,1055.02 51.06,1054.81 52.791,1047.89C53.618,1044.58 51.24,1037.4 45.355,1036.56C40.859,1035.91 35.867,1037.12 38.273,1036.32" style="fill:none;stroke:black;stroke-opacity:0.36;stroke-width:1px;"/>
    <path d="M43.939,1041.28C44.927,1044.57 45.77,1044.71 46.181,1048.01C46.344,1049.31 50.655,1046.22 48.306,1043.29C46.473,1040.99 46.148,1040.82 43.348,1041.75" style="fill:none;stroke:black;stroke-opacity:0.36;stroke-width:1px;"/>
    <path d="M63.177,1029.47C57.349,1031.42 55.46,1032.56 54.561,1039.74C54.454,1040.6 53.681,1046.79 58.338,1049.89C59.788,1050.86 65.605,1050.28 66.954,1046.24C68.221,1042.44 66.978,1042.41 66.482,1038.44C66.44,1038.11 66.335,1038.89 62.351,1039.39C60.817,1039.58 59.971,1039.04 60.227,1040.57C60.617,1042.91 60.439,1043.19 60.581,1043.05C61.404,1042.22 65.463,1040.72 64.24,1043.17C62.032,1047.58 55.596,1045.96 58.22,1038.09C58.721,1036.59 64.732,1033.35 63.413,1034.67C62.556,1035.53 63.424,1026.85 62.469,1029.71" style="fill:none;stroke:black;stroke-opacity:0.36;stroke-width:1px;"/>
    <path d="M67.544,1028.3C67.039,1030.82 68.349,1030.64 69.551,1037.86C70.261,1042.12 70.353,1042.06 70.967,1046.35C70.998,1046.57 71.439,1049.66 71.794,1048.95C71.919,1048.7 72.266,1048.01 74.39,1046.59C76.699,1045.05 77.005,1045.81 80.174,1044.23C80.252,1044.19 80.275,1044.18 81.257,1044.38C80.903,1040.99 80.009,1039.2 79.82,1039.39C78.934,1040.28 76.853,1040.2 74.873,1040.59C74.552,1037.89 74.175,1037.82 74.39,1037.74C75.008,1037.49 76.95,1038.34 75.925,1035.26C75.279,1033.32 74.731,1033.43 72.864,1034.25C72.685,1033.34 72.888,1033.32 72.03,1031.6C71.878,1031.3 77.131,1029.23 77.695,1029.12C78.412,1028.98 78.117,1028.69 77.695,1027C77.178,1024.93 76.353,1026.11 74.272,1026.41C70.678,1026.92 70.796,1027.42 67.19,1027.82L67.426,1027.35" style="fill:none;stroke:black;stroke-opacity:0.36;stroke-width:1px;"/>
    <path d="M60.345,1055.21C61.247,1066.04 59.078,1073.37 59.755,1073.03C63.421,1071.19 76.472,1071.29 76.751,1071.26C76.626,1070.82 76.624,1070.87 76.515,1070.43C75.627,1066.88 75.965,1066.52 75.689,1066.65C75.418,1066.79 74.461,1067.27 71.912,1066.42C71.418,1066.25 66.704,1066.33 67.19,1065.36C68.229,1063.28 66.451,1057.94 66.246,1057.33C65.426,1054.87 65.934,1053.97 65.066,1054.26C64.587,1054.42 63.261,1055.96 61.289,1054.97L61.761,1055.21" style="fill:none;stroke:black;stroke-opacity:0.36;stroke-width:1px;"/>
    <path d="M78.167,1072.67C78.915,1071.18 80.037,1067.25 80.174,1066.77C82.323,1059.25 82.886,1054.22 83.36,1054.26C87.061,1054.6 89.572,1051.21 90.442,1055.56C90.805,1057.38 92.221,1069.76 92.803,1072.08C92.949,1072.67 93.391,1073.06 92.803,1072.91C92.154,1072.75 91.722,1073.69 90.442,1073.26C89.478,1072.94 89.495,1073.07 88.448,1073.15C88.104,1070.01 87.898,1070.07 87.61,1066.89C87.428,1064.89 86.449,1066.33 84.454,1066.54C84.254,1067.64 83.578,1068.95 82.652,1071.73C82.477,1072.26 77.541,1073.81 78.993,1070.9" style="fill:none;stroke:black;stroke-opacity:0.36;stroke-width:1px;"/>
    <path d="M84.659,1062.29C87.267,1062.17 87.442,1062.26 87.373,1062.05C85.9,1057.63 86.352,1057.05 86.075,1057.33C84.606,1058.8 84.838,1061.57 85.013,1061.22" style="fill:none;stroke:black;stroke-opacity:0.36;stroke-width:1px;"/>
    <path d="M95.163,1052.96C95.789,1058.6 95.23,1072.42 95.517,1072.44C95.729,1072.45 104.127,1072.09 104.37,1071.97C106.557,1070.87 106.838,1070.94 107.438,1068.54C107.646,1067.71 107.937,1067.52 105.786,1064.65C105.483,1064.24 101.521,1062.36 101.301,1062.29C100.645,1062.07 100.533,1062.05 100.593,1062.05C103.674,1062.05 107.5,1059.58 106.376,1057.33C104.842,1054.26 102.019,1053.56 101.537,1053.43C98.69,1052.72 96.104,1053.31 96.108,1053.32C96.147,1053.43 96.299,1053.63 96.344,1053.67" style="fill:none;stroke:black;stroke-opacity:0.36;stroke-width:1px;"/>
    <path d="M98.232,1056.62C98.347,1058.69 98.166,1058.84 98.586,1058.98C101.221,1059.86 103.236,1058.72 102.717,1057.68C102.109,1056.47 97.809,1055.66 98.586,1057.21" style="fill:none;stroke:black;stroke-opacity:0.36;stroke-width:1px;"/>
    <path d="M98.232,1065.47C98.242,1065.78 98.35,1069.25 98.35,1069.25C98.388,1070.22 105.147,1068.73 103.544,1067.13C101.195,1064.78 100.649,1066.31 97.76,1065.83" style="fill:none;stroke:black;stroke-opacity:0.36;stroke-width:1px;"/>
    <path d="M1033.56,1065.45C1034.95,1064.41 1066.18,1034.76 1066.1,1034.68" style="fill:none;stroke:black;stroke-opacity:0.36;stroke-width:1px;"/>
    <path d="M1049.39,1066.33C1057.88,1055.01 1062.29,1059 1068.74,1046.11" style="fill:none;stroke:black;stroke-opacity:0.36;stroke-width:1px;"/>
    <path d="M1060.82,1068.97C1061.7,1068.09 1068.9,1063.29 1069.61,1062.82" style="fill:none;stroke:black;stroke-opacity:0.36;stroke-width:1px;"/>
    <path d="M6.434,33.053C14.496,24.992 17.939,18.031 20.504,15.466C25.237,10.733 25.382,11.467 30.178,6.672" style="fill:none;stroke:black;stroke-opacity:0.36;stroke-width:1px;"/>
    <path d="M208.693,131.545C212.598,129.593 212.919,130.129 214.849,126.269C216.136,123.694 216.281,165.261 215.728,170.238" style="fill:none;stroke:black;stroke-opacity:0.36;stroke-width:1px;"/>
    <path d="M207.814,171.997C210.454,170.677 215.193,174.52 225.402,171.117" style="fill:none;stroke:black;stroke-opacity:0.36;stroke-width:1px;"/>
    <path d="M327.411,949.376C331.317,937.658 332.385,938.274 335.325,926.512C339.793,908.642 334.195,933.046 342.36,949.376C350.92,927.977 349.049,918.625 348.516,915.959" style="fill:none;stroke:black;stroke-opacity:0.36;stroke-width:1px;"/>
    <path d="M357.31,925.632C359.448,940.598 364.668,958.26 359.948,944.099" style="fill:none;stroke:black;stroke-opacity:0.36;stroke-width:1px;"/>
    <path d="M353.792,940.582C354.918,939.832 362.195,936.577 362.586,936.185" style="fill:none;stroke:black;stroke-opacity:0.36;stroke-width:1px;"/>
    <path d="M373.139,922.115C378.588,918.482 378.631,918.498 381.053,912.442C381.501,921.39 381.128,921.182 381.933,930.029C382.079,931.642 381.461,931.34 382.812,950.255" style="fill:none;stroke:black;stroke-opacity:0.36;stroke-width:1px;"/>
    <path d="M374.018,950.255C388.882,944.681 389.056,945.213 393.365,942.341" style="fill:none;stroke:black;stroke-opacity:0.36;stroke-width:1px;"/>
    <path d="M401.279,1017.97C385.033,1015.65 383.155,1035.35 398.641,1033.8C400.912,1033.57 408.66,1025.57 409.194,1022.37C410.424,1014.98 401.831,1010.71 399.521,1015.33" style="fill:none;stroke:black;stroke-opacity:0.36;stroke-width:1px;"/>
    <path d="M423.264,1024.12C403.69,1029.72 417.698,1040.71 421.505,1039.95C428.116,1038.63 429.148,1017.36 421.505,1025" style="fill:none;stroke:black;stroke-opacity:0.36;stroke-width:1px;"/>
    <path d="M454.922,1029.4C453.092,1029.53 422.2,1031.74 442.611,1048.75C445.998,1051.57 470.939,1048.06 454.043,1031.16" style="fill:none;stroke:black;stroke-opacity:0.36;stroke-width:1px;"/>
    <path d="M534.946,1026.76C503.488,1019.77 516.018,1061.95 533.188,1050.51C547.571,1040.92 538,1019.77 532.308,1031.16" style="fill:none;stroke:black;stroke-opacity:0.36;stroke-width:1px;"/>
    <path d="M598.262,1017.09C566.809,1024.08 585.292,1044.99 599.142,1039.95C600.61,1039.42 613.731,1034.65 610.574,1024.12C609.627,1020.97 607.675,1022.72 606.177,1019.73" style="fill:none;stroke:black;stroke-opacity:0.36;stroke-width:1px;"/>
    <path d="M469.872,958.17C453.521,962.841 463.191,979.121 476.027,977.516C491.027,975.641 475.398,956.887 474.269,955.532" style="fill:none;stroke:black;stroke-opacity:0.36;stroke-width:1px;"/>
    <path d="M422.385,752.393C422.17,754.651 420.016,777.263 425.902,780.533C450.739,794.331 452.244,766.138 444.369,751.513C438.552,740.71 433.738,743.214 427.661,754.152" style="fill:none;stroke:black;stroke-opacity:0.36;stroke-width:1px;"/>
    <path d="M60.077,840.332C45.291,846.669 52.649,856.255 56.559,864.075C69.255,861.959 72.025,862.735 74.147,850.005C75.31,843.025 63.335,835.185 53.042,840.332" style="fill:none;stroke:black;stroke-opacity:0.36;stroke-width:1px;"/>
    <path d="M175.277,609.053C169.806,618.9 169.942,618.506 164.159,628.226C168.326,628.977 168.005,628.812 189.211,631.087C182.832,623.387 182.336,624.051 177.915,615.208C175.101,609.58 173.13,610.566 172.638,610.811" style="fill:none;stroke:black;stroke-opacity:0.36;stroke-width:1px;"/>
    <path d="M993.987,649.504C994.308,651.755 999.791,690.132 1004.54,675.886C1009.99,659.547 1030.54,647.934 1015.09,655.66C1009.81,658.303 994.12,652.009 994.866,651.263" style="fill:none;stroke:black;stroke-opacity:0.36;stroke-width:1px;"/>
    <path d="M645.749,30.415C644.452,35.603 631.14,60.207 631.679,60.314C643.024,62.583 650.055,69.35 648.387,57.676C648.151,56.021 646.453,44.134 643.111,37.45" style="fill:none;stroke:black;stroke-opacity:0.36;stroke-width:1px;"/>
    <path d="M269.371,26.898C249.978,35.209 263.941,40.502 264.974,40.089C273.074,36.848 273.335,19.416 264.974,27.777" style="fill:none;stroke:black;stroke-opacity:0.36;stroke-width:1px;"/>
    <path d="M379.295,113.957C356.845,129.993 382.789,127.813 385.45,127.148C400.645,123.349 398.756,104.832 381.933,110.44" style="fill:none;stroke:black;stroke-opacity:0.36;stroke-width:1px;"/>
    <path d="M23.142,236.192C21.369,236.857 5.196,242.922 14.349,258.177C16.239,261.328 37.157,254.133 17.866,245.865" style="fill:none;stroke:black;stroke-opacity:0.36;stroke-width:1px;"/>
</svg>
