<?xml version="1.0" encoding="UTF-8" standalone="no"?>
<!DOCTYPE svg PUBLIC "-//W3C//DTD SVG 1.1//EN" "http://www.w3.org/Graphics/SVG/1.1/DTD/svg11.dtd">
<svg width="100%" height="100%" viewBox="0 0 1920 1920" version="1.1" xmlns="http://www.w3.org/2000/svg" xmlns:xlink="http://www.w3.org/1999/xlink" xml:space="preserve" xmlns:serif="http://www.serif.com/" style="fill-rule:evenodd;clip-rule:evenodd;stroke-linecap:square;stroke-miterlimit:1.5;">
    <g id="Layer1">
    </g>
    <g id="Layer3">
    </g>
    <g id="Artboard1" transform="matrix(1.39625,0,0,1.19408,-2114.28,47.9137)">
        <rect x="1514.26" y="-40.126" width="1375.11" height="1607.93" style="fill:none;"/>
        <clipPath id="_clip1">
            <rect x="1514.26" y="-40.126" width="1375.11" height="1607.93"/>
        </clipPath>
        <g clip-path="url(#_clip1)">
            <g transform="matrix(0.716203,0,0,0.837465,1514.26,-40.126)">
                <path d="M239.669,542.299C172.733,408.425 230.09,293.711 239.669,274.552C276.739,200.414 263.943,189.493 332.798,143.59C422.749,83.623 315.761,104.922 312.426,105.756C277.503,114.487 273.993,110.977 271.682,108.666C266.085,103.069 296.42,133.404 370.632,108.666C381.853,104.926 367.7,114.617 344.44,254.18C354.936,159.71 388.797,27.278 364.812,123.218" style="fill:none;stroke:black;stroke-width:7.65px;"/>
            </g>
            <g transform="matrix(0.716203,0,0,0.837465,1514.26,-40.126)">
                <path d="M859.56,941.008C871.895,934.84 1064.29,885.908 1176.78,891.533C1187.01,892.044 1263.68,915.705 1432.89,891.533C1504.05,881.366 1942.2,859.519 1697.72,876.981C1669.61,878.989 1518.34,929.517 1374.68,908.994C1361.47,907.107 1173.04,905.148 1106.93,888.622C1088.14,883.923 1087.74,888.265 865.381,871.161L877.022,865.34" style="fill:none;stroke:black;stroke-width:7.65px;"/>
            </g>
            <g transform="matrix(0.716203,0,0,0.837465,1514.26,-40.126)">
                <path d="M1738.47,885.712C1734.61,989.843 1734.3,988.498 1723.91,1092.34C1734.12,980.095 1737.5,981.753 1755.93,871.161C1749.73,920.718 1750.01,992.162 1744.29,1095.25C1743.57,1076.64 1741.48,1022.39 1747.2,862.43C1741.31,991.872 1746.2,991.132 1741.38,1121.44C1739.24,1055.17 1732.99,1055.69 1744.29,999.213C1746.53,988.007 1743.66,989.225 1738.47,978.841" style="fill:none;stroke:black;stroke-width:7.65px;"/>
            </g>
            <g transform="matrix(0.716203,0,0,0.837465,1514.26,-40.126)">
                <path d="M175.643,265.822C218.522,284.198 207.521,294.688 230.939,335.668C248.601,366.577 249.904,364.837 271.682,393.874" style="fill:none;stroke:black;stroke-width:7.65px;"/>
            </g>
            <g transform="matrix(0.716203,0,0,0.837465,1514.26,-40.126)">
                <path d="M155.271,385.143C219.349,328.185 217.798,327.937 289.144,280.373" style="fill:none;stroke:black;stroke-width:7.65px;"/>
            </g>
            <g transform="matrix(0.716203,0,0,0.837465,1514.26,-40.126)">
                <path d="M1223.35,1895.58C1226.64,1893.11 1248.96,1876.37 1258.27,1857.75C1270.87,1832.54 1273.3,1872.78 1273.79,1876.18C1293.84,1840.37 1290.91,1839.97 1312.96,1804.24C1316.35,1841.77 1316.27,1840.7 1319.38,1878.12" style="fill:none;stroke:black;stroke-width:7.65px;"/>
            </g>
            <g transform="matrix(0.716203,0,0,0.837465,1514.26,-40.126)">
                <path d="M1348.49,1872.3C1350.38,1869.14 1374.18,1829.48 1374.68,1834.47C1380.04,1888.06 1372.63,1888.74 1368.86,1886.85C1356.59,1880.72 1350.41,1903.32 1351.4,1904.31C1357.22,1910.13 1373,1902.24 1374.68,1901.4" style="fill:none;stroke:black;stroke-width:7.65px;"/>
            </g>
            <g transform="matrix(0.716203,0,0,0.837465,1514.26,-40.126)">
                <path d="M1403.78,1860.66C1386.47,1834.69 1391.25,1868.49 1395.05,1872.3C1397.2,1874.45 1440.74,1887.29 1395.05,1910.13" style="fill:none;stroke:black;stroke-width:7.65px;"/>
            </g>
            <g transform="matrix(0.716203,0,0,0.837465,1514.26,-40.126)">
                <path d="M1438.71,1857.75C1404.83,1900.09 1435.79,1899.95 1438.71,1898.49C1449.76,1892.96 1449.19,1830.95 1432.89,1863.57" style="fill:none;stroke:black;stroke-width:7.65px;"/>
            </g>
            <g transform="matrix(0.716203,0,0,0.837465,1514.26,-40.126)">
                <path d="M1456.17,1857.75C1457.85,1855.5 1479.06,1827.23 1479.45,1831.56C1479.96,1837.16 1482.16,1861.36 1470.72,1901.4C1474.67,1873.74 1487.95,1842.74 1491.09,1849.02C1501.99,1870.82 1485.82,1918.32 1520.19,1883.94" style="fill:none;stroke:black;stroke-width:7.65px;"/>
            </g>
            <g transform="matrix(0.716203,0,0,0.837465,1514.26,-40.126)">
                <path d="M1546.39,1889.76C1590.04,1824.28 1590.04,1769.66 1590.04,1779.17C1590.04,1848.88 1594.39,1847.37 1598.77,1915.95" style="fill:none;stroke:black;stroke-width:7.65px;"/>
            </g>
            <g transform="matrix(0.716203,0,0,0.837465,1514.26,-40.126)">
                <path d="M1572.58,1869.39C1575.65,1868.62 1601.68,1862.11 1610.41,1857.75" style="fill:none;stroke:black;stroke-width:7.65px;"/>
            </g>
            <g transform="matrix(0.716203,0,0,0.837465,1514.26,-40.126)">
                <path d="M1613.32,1869.39C1661.13,1792.89 1623.11,1906.97 1622.05,1910.13C1627.73,1881.74 1628.86,1883.4 1638.55,1856.78L1642.43,1881.03L1652.72,1857.52C1654.51,1862.67 1663.81,1905.32 1665.71,1907.22" style="fill:none;stroke:black;stroke-width:7.65px;"/>
            </g>
            <g transform="matrix(0.716203,0,0,0.837465,1514.26,-40.126)">
                <path d="M1671.53,1851.93C1677.81,1846.43 1679.8,1837.05 1686.08,1831.56C1718.3,1803.36 1688.44,1847.31 1694.81,1889.76C1694.54,1888.14 1689.36,1857.02 1680.26,1875.21C1664.46,1906.82 1690.65,1900.99 1694.81,1892.67" style="fill:none;stroke:black;stroke-width:7.65px;"/>
            </g>
            <g transform="matrix(0.716203,0,0,0.837465,1514.26,-40.126)">
                <path d="M1732.64,1802.45C1740.99,1802.45 1738.85,1782.08 1747.2,1782.08C1750.06,1782.08 1731.58,1912.93 1729.74,1892.67C1727.69,1870.2 1736.03,1853.14 1715.18,1863.57C1707.78,1867.27 1703.4,1893.53 1702.94,1896.28C1717.23,1890.64 1718.36,1895.32 1729.74,1883.94" style="fill:none;stroke:black;stroke-width:7.65px;"/>
            </g>
            <g transform="matrix(0.716203,0,0,0.837465,1514.26,-40.126)">
                <path d="M1750.11,1872.3C1798.1,1851.73 1779.61,1836.27 1776.3,1837.38C1763.16,1841.75 1720.45,1931.06 1782.12,1869.39" style="fill:none;stroke:black;stroke-width:7.65px;"/>
            </g>
            <g transform="matrix(0.716203,0,0,0.837465,1514.26,-40.126)">
                <path d="M1796.67,1851.93C1796.04,1854.45 1785.11,1947.8 1825.77,1866.48" style="fill:none;stroke:black;stroke-width:7.65px;"/>
            </g>
            <g transform="matrix(0.716203,0,0,0.837465,1514.26,-40.126)">
                <path d="M1819.95,1857.75C1819.69,1861.72 1816,1916.99 1825.77,1907.22" style="fill:none;stroke:black;stroke-width:7.65px;"/>
            </g>
            <g transform="matrix(0.716203,0,0,0.837465,1514.26,-40.126)">
                <path d="M1857.79,1831.56C1853.54,1863.44 1846.57,1866.9 1869.43,1889.76C1880.1,1900.43 1846.04,1917.46 1843.24,1918.86" style="fill:none;stroke:black;stroke-width:7.65px;"/>
            </g>
            <g transform="matrix(0.716203,0,0,0.837465,1447.56,-32.8143)">
                <path d="M1333.94,41.73C1334.22,47.082 1336.85,97.025 1336.85,108.666C1336.85,109.402 1336.85,108.666 1333.94,99.935" style="fill:none;stroke:black;stroke-width:7.65px;"/>
            </g>
            <g transform="matrix(0.716203,0,0,0.837465,1447.56,-32.8143)">
                <path d="M1299.01,56.281C1305.91,54.901 1365.65,32.697 1365.95,32.999" style="fill:none;stroke:black;stroke-width:7.65px;"/>
            </g>
            <g transform="matrix(0.716203,0,0,0.837465,1447.56,-32.8143)">
                <path d="M1386.32,35.909C1381.58,102.319 1381.93,101.574 1380.5,111.576" style="fill:none;stroke:black;stroke-width:7.65px;"/>
            </g>
            <g transform="matrix(0.716203,0,0,0.837465,1447.56,-32.8143)">
                <path d="M1406.69,44.64C1407.66,66.952 1408.63,89.264 1409.6,111.576" style="fill:none;stroke:black;stroke-width:7.65px;"/>
            </g>
            <g transform="matrix(0.716203,0,0,0.837465,1447.56,-32.8143)">
                <path d="M1377.59,88.294C1403.11,74.119 1401.53,71.959 1403.78,70.833C1404.44,70.503 1403.78,70.833 1412.51,67.922" style="fill:none;stroke:black;stroke-width:7.65px;"/>
            </g>
            <g transform="matrix(0.716203,0,0,0.837465,1447.56,-32.8143)">
                <path d="M1441.62,47.55C1437.84,92.837 1417.22,122.768 1461.99,111.576" style="fill:none;stroke:black;stroke-width:7.65px;"/>
            </g>
            <g transform="matrix(0.716203,0,0,0.837465,1447.56,-32.8143)">
                <path d="M1438.71,85.384C1440.88,85.021 1459.66,81.892 1464.9,76.653" style="fill:none;stroke:black;stroke-width:7.65px;"/>
            </g>
            <g transform="matrix(0.716203,0,0,0.837465,1447.56,-32.8143)">
                <path d="M1435.8,62.102C1438.91,61.211 1456.17,56.281 1473.63,47.55" style="fill:none;stroke:black;stroke-width:7.65px;"/>
            </g>
            <g transform="matrix(0.716203,0,0,0.837465,1447.56,-32.8143)">
                <path d="M1540.57,53.371L1540.57,152.32L1543.48,137.769" style="fill:none;stroke:black;stroke-width:7.65px;"/>
            </g>
            <g transform="matrix(0.716203,0,0,0.837465,1447.56,-32.8143)">
                <path d="M1534.75,59.191C1569.74,24.197 1623.54,63.547 1584.22,76.653C1564.29,83.297 1664.64,83.547 1616.23,131.948C1605.53,142.65 1559.14,167.986 1537.66,146.5" style="fill:none;stroke:black;stroke-width:7.65px;"/>
            </g>
            <g transform="matrix(0.716203,0,0,0.837465,1447.56,-32.8143)">
                <path d="M1552.21,102.846C1559.19,116.807 1558.85,116.029 1561.85,132.234C1607.67,123.386 1592.23,107.944 1590.04,105.756C1577.49,93.2 1538.8,122.072 1552.21,108.666" style="fill:none;stroke:black;stroke-width:7.65px;"/>
            </g>
            <g transform="matrix(0.716203,0,0,0.837465,1447.56,-32.8143)">
                <path d="M1552.21,62.102C1542.99,98.994 1566.09,75.076 1566.76,73.743C1574.99,57.275 1554.91,59.394 1552.21,62.102" style="fill:none;stroke:black;stroke-width:7.65px;"/>
            </g>
            <g transform="matrix(0.716203,0,0,0.837465,1447.56,-32.8143)">
                <path d="M1665.71,50.461C1627.42,50.461 1623.24,206.434 1691.9,137.769C1751.28,78.395 1686.78,17.744 1648.25,56.281" style="fill:none;stroke:black;stroke-width:7.65px;"/>
            </g>
            <g transform="matrix(0.716203,0,0,0.837465,1447.56,-32.8143)">
                <path d="M1665.71,79.563C1636.42,138.136 1682.85,120.624 1688.99,114.487C1720.89,82.587 1642.52,62.193 1662.8,82.474" style="fill:none;stroke:black;stroke-width:7.65px;"/>
            </g>
            <g transform="matrix(0.716203,0,0,0.837465,1447.56,-32.8143)">
                <path d="M1726.83,50.461C1720.67,155.084 1718.24,158.906 1726.83,161.051C1769.94,171.829 1776.17,135.126 1776.3,134.859C1817.69,52.076 1755.97,47.025 1729.74,44.64" style="fill:none;stroke:black;stroke-width:7.65px;"/>
            </g>
            <g transform="matrix(0.716203,0,0,0.837465,1447.56,-32.8143)">
                <path d="M1744.29,76.653C1754.71,107.93 1741.72,140.336 1764.66,117.397C1797.09,84.968 1750.69,77.236 1747.2,76.653" style="fill:none;stroke:black;stroke-width:7.65px;"/>
            </g>
            <g transform="matrix(0.716203,0,0,0.837465,1447.56,-32.8143)">
                <path d="M1817.04,99.935C1870.74,82.038 1886.22,107.092 1860.7,158.141C1837.23,205.078 1761.27,136.835 1779.21,140.679" style="fill:none;stroke:black;stroke-width:7.65px;"/>
            </g>
            <g transform="matrix(0.716203,0,0,0.837465,1447.56,-32.8143)">
                <path d="M1776.3,59.191C1791.38,44.111 1855.9,11.969 1843.24,56.281C1840.65,65.345 1826.57,40.137 1814.13,65.012C1811.22,70.833 1800.91,75.986 1799.58,76.653" style="fill:none;stroke:black;stroke-width:7.65px;"/>
            </g>
            <g transform="matrix(0.716203,0,0,0.837465,1447.56,-32.8143)">
                <path d="M1787.94,111.576C1800.75,175.609 1860.4,146.199 1837.41,123.218C1834.55,120.355 1833.53,115.464 1822.86,126.128C1822.13,126.857 1818.99,106.725 1817.04,108.666" style="fill:none;stroke:black;stroke-width:7.65px;"/>
            </g>
            <g transform="matrix(0.716203,0,0,0.837465,1447.56,-32.8143)">
                <path d="M1854.88,38.819C1893.25,153.932 1883,164.288 1892.71,161.051C1919.99,151.96 1917.31,146.19 1945.36,140.679C1942.57,109.951 1944.4,96.285 1915.99,105.756C1905.98,109.093 1901.1,93.257 1907.26,91.205C1922.08,86.265 1921.55,86.037 1927.63,71.124C1897.6,65.389 1865.19,67.129 1892.71,53.371C1937.27,31.09 1916.15,19.47 1913.08,18.447C1908.26,16.839 1897.37,13.209 1851.97,35.909" style="fill:none;stroke:black;stroke-width:7.65px;"/>
            </g>
            <g transform="matrix(0.716203,0,0,0.837465,1514.26,-40.126)">
                <path d="M1331.03,230.898C1331.03,240.546 1331.03,358.951 1348.49,350.22C1383.5,332.716 1438.74,347.237 1447.44,329.848C1473.19,278.349 1382.41,292.914 1380.5,289.104C1374.11,276.33 1391.12,210.926 1386.32,210.526C1303.87,203.655 1333.82,252.716 1333.94,254.18" style="fill:none;stroke:black;stroke-width:7.65px;"/>
            </g>
            <g transform="matrix(0.716203,0,0,0.837465,1514.26,-40.126)">
                <path d="M1456.17,338.579C1480.11,266.759 1467.94,265.158 1476.54,222.167C1477.2,218.886 1526.46,197.296 1531.84,213.436C1569.63,326.809 1567.74,333.837 1558.03,332.758C1543.08,331.097 1541.92,325.584 1531.84,335.668C1530.17,337.331 1523.94,290.04 1520.19,289.104C1516.64,288.216 1504.51,282.462 1496.46,338.825C1459.73,335.151 1462.93,325.999 1464.9,324.027" style="fill:none;stroke:black;stroke-width:7.65px;"/>
            </g>
            <g transform="matrix(0.716203,0,0,0.837465,1514.26,-40.126)">
                <path d="M1494,251.27C1517.99,323.226 1522.19,243.868 1520.19,242.539C1513.16,237.847 1490.96,249.847 1496.91,248.36" style="fill:none;stroke:black;stroke-width:7.65px;"/>
            </g>
            <g transform="matrix(0.716203,0,0,0.837465,1514.26,-40.126)">
                <path d="M1560.94,213.436C1570.76,233.082 1573.26,346.633 1590.04,329.848C1599.67,320.22 1636.53,321.263 1639.52,315.296C1663.47,267.389 1623.79,260.776 1619.14,260.001C1623.27,258.349 1662.8,242.539 1624.97,204.706C1604.53,184.267 1553.11,193.963 1563.85,204.706" style="fill:none;stroke:black;stroke-width:7.65px;"/>
            </g>
            <g transform="matrix(0.716203,0,0,0.837465,1514.26,-40.126)">
                <path d="M1578.4,225.078C1585.15,245.317 1589.32,254.904 1604.59,239.629C1618.07,226.154 1580.1,212.226 1590.04,222.167" style="fill:none;stroke:black;stroke-width:7.65px;"/>
            </g>
            <g transform="matrix(0.716203,0,0,0.837465,1514.26,-40.126)">
                <path d="M146.54,1395.01C68.631,1488.5 52.994,1486.48 62.142,1491.05C111.139,1515.55 204.571,1545.86 232.034,1550.18C203.885,1439.82 188.118,1444.1 181.464,1330.99C145.099,1379.47 113.788,1388.45 123.258,1397.92" style="fill:none;stroke:black;stroke-width:7.65px;"/>
            </g>
            <g transform="matrix(0.716203,0,0,0.837465,1514.26,-40.126)">
                <path d="M1.026,1136C37.497,1117.76 272.768,1161.34 341.529,1200.02C688.337,1395.1 802.73,1763.44 856.65,1907.22" style="fill:none;stroke:black;stroke-width:7.65px;"/>
            </g>
            <g transform="matrix(0.716203,0,0,0.837465,1514.26,-40.126)">
                <path d="M1587.13,280.373C1592.42,312.13 1620.93,296.238 1616.23,277.463C1616.1,276.934 1598.4,266.189 1590.04,274.552" style="fill:none;stroke:black;stroke-width:7.65px;"/>
            </g>
            <g transform="matrix(0.716203,0,0,0.837465,1514.26,-40.126)">
                <path d="M417.197,53.371C417.197,150.325 417.401,148.886 414.286,245.45C413.844,259.179 414.286,258.169 414.286,417.156" style="fill:none;stroke:black;stroke-width:7.65px;"/>
            </g>
            <g transform="matrix(0.716203,0,0,0.837465,1514.26,-40.126)">
                <path d="M408.466,487.003C396.721,674.922 370.708,717.295 388.094,804.224" style="fill:none;stroke:black;stroke-width:7.65px;"/>
            </g>
            <g transform="matrix(0.716203,0,0,0.837465,1514.26,-40.126)">
                <path d="M370.632,941.008C365.873,1055.23 367.083,1054.73 361.901,1127.27" style="fill:none;stroke:black;stroke-width:7.65px;"/>
            </g>
            <g transform="matrix(0.716203,0,0,0.837465,1514.26,-40.126)">
                <path d="M361.901,1287.33C361.901,1356.47 361.204,1355.5 358.991,1424.12C358.773,1430.86 358.991,1430.37 358.991,1508.51" style="fill:none;stroke:black;stroke-width:7.65px;"/>
            </g>
            <g transform="matrix(0.716203,0,0,0.837465,1514.26,-40.126)">
                <path d="M373.542,1869.39C373.542,1957.12 366.715,1956.36 376.453,2044.01" style="fill:none;stroke:black;stroke-width:7.65px;"/>
            </g>
            <g transform="matrix(0.716203,0,0,0.837465,1514.26,-40.126)">
                <path d="M1531.84,373.502C1529.12,449.472 1528.92,448.581 1528.92,524.837" style="fill:none;stroke:black;stroke-width:7.65px;"/>
            </g>
            <g transform="matrix(0.716203,0,0,0.837465,1514.26,-40.126)">
                <path d="M1555.12,670.351C1537.53,793.449 1540.28,793.746 1537.66,804.224" style="fill:none;stroke:black;stroke-width:7.65px;"/>
            </g>
            <g transform="matrix(0.716203,0,0,0.837465,1514.26,-40.126)">
                <path d="M1505.64,1048.69C1515.99,1121.11 1510.57,1120.31 1505.64,1194.2" style="fill:none;stroke:black;stroke-width:7.65px;"/>
            </g>
            <g transform="matrix(0.716203,0,0,0.837465,1514.26,-40.126)">
                <path d="M1488.18,1502.69C1491.65,1540.86 1489.19,1539.77 1496.91,1578.36" style="fill:none;stroke:black;stroke-width:7.65px;"/>
            </g>
            <g transform="matrix(0.716203,0,0,0.837465,1514.26,-40.126)">
                <path d="M1502.73,1700.59C1502.34,1707.35 1499.82,1750.07 1496.91,1784.99" style="fill:none;stroke:black;stroke-width:7.65px;"/>
            </g>
        </g>
    </g>
    <g id="Layer2">
    </g>
</svg>
