<?xml version="1.0" encoding="UTF-8" standalone="no"?>
<!DOCTYPE svg PUBLIC "-//W3C//DTD SVG 1.1//EN" "http://www.w3.org/Graphics/SVG/1.1/DTD/svg11.dtd">
<svg width="100%" height="100%" viewBox="0 0 318 197" version="1.1" xmlns="http://www.w3.org/2000/svg" xmlns:xlink="http://www.w3.org/1999/xlink" xml:space="preserve" xmlns:serif="http://www.serif.com/" style="fill-rule:evenodd;clip-rule:evenodd;stroke-linecap:square;stroke-miterlimit:1.5;">
    <g transform="matrix(1,0,0,1,-208.681,-844.994)">
        <path d="M213.801,864.416C212.436,869.878 215.689,885.729 216.063,887.55C217.718,887.481 234.888,886.765 236.613,885.04" style="fill:none;stroke:black;stroke-width:3.6px;"/>
        <path d="M252.238,870.04C247.191,869.319 238.181,879.939 250.05,887.852C258.726,893.636 264.943,865.094 252.55,871.29" style="fill:none;stroke:black;stroke-width:3.6px;"/>
        <path d="M270.05,870.04C270.389,869.361 273.321,860.958 277.237,868.79C277.68,869.677 275.013,893.826 283.487,885.352" style="fill:none;stroke:black;stroke-width:3.6px;"/>
        <path d="M275.987,873.79C274.953,874.479 265.308,880.91 265.987,885.665C266.361,888.28 274.8,888.07 278.487,882.54" style="fill:none;stroke:black;stroke-width:3.6px;"/>
        <path d="M288.486,852.229C289.115,852.124 293.994,851.311 295.674,848.791C297.158,846.564 298.081,849.831 296.924,882.227" style="fill:none;stroke:black;stroke-width:3.6px;"/>
        <path d="M297.236,865.353C289.183,868.037 286.027,893.749 297.236,882.54" style="fill:none;stroke:black;stroke-width:3.6px;"/>
        <path d="M305.673,868.165C307.067,866.573 309.299,863.535 308.798,867.54C308.526,869.719 308.552,869.692 307.236,882.852" style="fill:none;stroke:black;stroke-width:3.6px;"/>
        <path d="M308.173,860.666C308.367,858.532 306.928,856.295 308.486,857.853" style="fill:none;stroke:black;stroke-width:3.6px;"/>
        <path d="M313.173,865.978C314.121,862.186 314.344,862.361 316.971,859.368C315.985,867.186 315.985,876.372 315.985,877.853C315.985,902.843 314.709,864.266 320.36,862.853C325.326,861.612 323.885,879.452 324.423,881.603C325.346,885.297 330.964,880.068 331.922,878.79" style="fill:none;stroke:black;stroke-width:3.6px;"/>
        <path d="M345.672,862.228C335.882,863.86 335.916,873.536 339.11,875.665C347.374,881.175 348.988,861.811 349.109,860.353C348.015,873.48 349.055,873.448 347.859,886.602C347.782,887.458 346.844,897.774 346.297,897.227" style="fill:none;stroke:black;stroke-width:3.6px;"/>
        <path d="M337.86,886.602C333.386,893.76 335.573,900.795 337.547,903.164C339.401,905.388 345.463,904.209 347.859,892.227" style="fill:none;stroke:black;stroke-width:3.6px;"/>
        <path d="M303.486,920.664C300.519,914.73 282.144,907.024 295.674,913.789" style="fill:none;stroke:black;stroke-width:3.6px;"/>
        <path d="M316.923,909.727C314.575,906.373 314.611,906.457 311.611,903.789L311.923,905.039" style="fill:none;stroke:black;stroke-width:3.6px;"/>
        <path d="M312.893,925.282C312.688,925.282 312.844,925.085 312.893,925.282C315.729,936.627 315.584,937.868 316.018,937C318.095,932.845 334.911,926.35 338.283,933.094C346.63,949.789 322.043,942.185 325.002,951.062C326.732,956.252 327.348,955.944 327.736,955.749C328.55,955.342 339.93,951.232 340.236,951.843C349.958,971.287 324.078,966.111 322.298,965.755C327.891,973.433 322.26,981.063 331.642,979.186C348.243,975.866 351.825,972.284 353.126,970.983C358.693,965.416 355.282,951.656 351.954,948.328C349.53,945.904 348.928,944.812 346.095,944.812C345.488,944.812 348.308,944.812 350.392,938.563C350.854,937.175 353.126,930.36 344.142,921.376C341.037,918.27 325.279,919.927 323.049,922.157C320.127,925.079 311.254,922.395 312.893,925.672" style="fill:none;stroke:black;stroke-width:3.6px;"/>
        <path d="M357.859,913.789C357.859,926.761 362.223,941.902 362.242,967.238C364.667,967.105 384.3,966.024 388.796,952.538C395.536,932.316 383.583,924.089 382.858,921.914C381.951,919.193 369.486,909.538 361.609,913.476C360.032,914.265 360.045,914.57 358.484,913.789" style="fill:none;stroke:black;stroke-width:3.6px;"/>
        <path d="M298.799,939.413C285.316,938.992 284.939,939.818 284.424,938.788" style="fill:none;stroke:black;stroke-width:3.6px;"/>
        <path d="M299.736,964.1C295.391,966.273 295.649,966.474 292.549,970.35C290.713,972.644 290.129,972.064 288.799,974.724" style="fill:none;stroke:black;stroke-width:3.6px;"/>
        <path d="M319.423,982.849C317.443,991.76 317.52,991.716 317.86,994.099" style="fill:none;stroke:black;stroke-width:3.6px;"/>
        <path d="M346.297,980.662C346.704,981.476 349.109,986.287 350.359,991.286" style="fill:none;stroke:black;stroke-width:3.6px;"/>
        <path d="M379.421,979.412C383.94,982.424 383.863,982.386 387.233,986.599" style="fill:none;stroke:black;stroke-width:3.6px;"/>
        <path d="M408.795,967.537C409.856,967.816 409.954,969.498 414.732,969.1C414.908,969.085 414.894,969.076 416.92,968.787" style="fill:none;stroke:black;stroke-width:3.6px;"/>
        <path d="M406.92,941.601C413.119,937.092 412.933,936.967 413.482,936.601" style="fill:none;stroke:black;stroke-width:3.6px;"/>
        <path d="M399.733,924.414C400.501,922.768 404.977,914.482 405.67,913.789" style="fill:none;stroke:black;stroke-width:3.6px;"/>
        <path d="M381.608,905.352C382.237,904.004 384.206,901.212 385.671,895.352" style="fill:none;stroke:black;stroke-width:3.6px;"/>
        <path d="M362.234,898.164C363.185,892.935 363.685,893.186 365.359,888.165" style="fill:none;stroke:black;stroke-width:3.6px;"/>
        <g transform="matrix(1.10389,0,0,1.20093,-37.8895,-193.757)">
            <path d="M368.484,995.974C368.484,988.476 369.479,1006.97 379.108,1016.6C379.966,1017.46 379.679,1016.22 382.858,1001.91C383.001,1001.27 385.775,988.786 384.108,993.786" style="fill:none;stroke:black;stroke-width:3.12px;"/>
        </g>
        <g transform="matrix(1.10389,0,0,1.20093,-37.8895,-193.757)">
            <path d="M395.67,1005.97C398.399,1002.64 399.015,1000.51 399.42,1002.54C401.608,1013.48 396.817,1027.53 400.358,1016.91" style="fill:none;stroke:black;stroke-width:3.12px;"/>
        </g>
        <g transform="matrix(1.10389,0,0,1.20093,-37.8895,-193.757)">
            <path d="M398.795,993.474C399.004,993.37 399.212,993.265 399.42,993.161" style="fill:none;stroke:black;stroke-width:3.12px;"/>
        </g>
        <g transform="matrix(1.10389,0,0,1.20093,-37.8895,-193.757)">
            <path d="M410.357,1008.47C411.133,1008.13 417.818,1005.16 418.17,1001.29C419.173,990.251 408.776,1003.79 410.357,1012.22C410.935,1015.3 419.714,1021.98 422.232,1011.91" style="fill:none;stroke:black;stroke-width:3.12px;"/>
        </g>
        <g transform="matrix(1.10389,0,0,1.20093,-37.8895,-193.757)">
            <path d="M426.294,1001.91C426.664,1001.3 428.918,997.538 430.745,994.113C434.921,1010.7 435.441,1016.57 436.606,1011.91C438.818,1003.06 438.852,998.648 440.044,1002.22C440.201,1002.69 440.751,1009.23 443.169,1010.04C443.973,1010.3 450.091,998.279 449.106,989.411" style="fill:none;stroke:black;stroke-width:3.12px;"/>
        </g>
        <g transform="matrix(1.10389,0,0,1.20093,-37.8895,-193.757)">
            <path d="M457.231,1000.97C472.313,1003.72 472.998,985.358 465.98,990.036C460.011,994.016 451.046,1011.02 455.668,1014.1C460.908,1017.59 470.499,1008.98 470.98,1007.54" style="fill:none;stroke:black;stroke-width:3.12px;"/>
        </g>
        <g transform="matrix(1.10389,0,0,1.20093,-37.8895,-193.757)">
            <path d="M478.48,993.474C479.825,990.784 479.427,990.648 482.542,985.974C482.908,997.316 482.855,997.188 482.855,1008.47C483.01,1006.3 484.514,985.247 492.855,983.162" style="fill:none;stroke:black;stroke-width:3.12px;"/>
        </g>
        <g transform="matrix(1.10389,0,0,1.20093,-37.8895,-193.757)">
            <path d="M504.417,958.475C504.384,959.322 502.757,982.439 504.729,984.412" style="fill:none;stroke:black;stroke-width:3.12px;"/>
        </g>
        <g transform="matrix(1.10389,0,0,1.20093,-37.8895,-193.757)">
            <path d="M505.042,1001.29C508.085,1003.32 503.802,1003.88 503.792,1003.79C503.217,998.614 508.218,998.216 507.542,1001.6C507.377,1002.42 503.855,1002.41 505.354,999.411C505.769,998.581 505.702,999.447 506.292,1000.04" style="fill:none;stroke:black;stroke-width:3.12px;"/>
        </g>
        <path d="M435.356,876.29C434.699,877.605 435.084,877.732 429.732,893.79C429.475,894.561 445.658,896.597 450.668,899.102C451.842,899.689 457.722,881.245 459.731,877.228C459.886,876.916 460.356,875.978 461.293,873.165C451.16,874.432 439.344,872.153 438.481,871.29" style="fill:none;stroke:black;stroke-width:3.6px;"/>
        <path d="M431.919,896.29C433.602,897.972 432.432,898.565 436.919,907.539C436.919,907.539 442.319,917.326 441.919,916.601" style="fill:none;stroke:black;stroke-width:3.6px;"/>
        <path d="M443.481,918.476C444.485,919.193 454.783,926.549 458.168,923.164" style="fill:none;stroke:black;stroke-width:3.6px;"/>
        <path d="M460.668,922.851C461.104,921.324 462.387,916.836 470.043,905.352C476,896.417 474.699,895.696 475.355,895.04" style="fill:none;stroke:black;stroke-width:3.6px;"/>
        <path d="M462.231,875.978C466.793,885.103 466.818,887.241 467.855,890.352C468.572,892.502 472.094,897.305 473.168,901.602" style="fill:none;stroke:black;stroke-width:3.6px;"/>
        <path d="M453.793,899.102C457.295,909.608 458.276,915.88 461.606,922.539" style="fill:none;stroke:black;stroke-width:3.6px;"/>
        <path d="M223.801,933.163C221.034,934.547 213.045,967.537 211.926,967.537" style="fill:none;stroke:black;stroke-width:3.6px;"/>
        <path d="M214.739,970.35C220.207,975.134 223.469,975.042 234.738,972.224C239.905,970.933 241.036,966.239 241.613,965.662" style="fill:none;stroke:black;stroke-width:3.6px;"/>
        <path d="M226.613,935.663C231.648,941.417 230.501,942.158 235.676,947.85C237.585,949.951 236.531,950.581 238.488,952.538C241.723,955.772 246.454,965.816 247.238,966.6" style="fill:none;stroke:black;stroke-width:3.6px;"/>
        <path d="M261.612,1006.6C248.721,1004.99 252.574,1049.55 281.612,1035.04C287.284,1032.2 296.028,1030.16 290.986,1015.04C285.97,999.987 263.987,1003.1 260.987,1009.1" style="fill:none;stroke:black;stroke-width:3.6px;"/>
        <path d="M266.3,1012.22C262.036,1011.16 261.045,1018.14 261.925,1022.53" style="fill:none;stroke:black;stroke-width:3.6px;"/>
        <path d="M224.739,942.85C224.563,943.026 224.635,942.95 219.739,962.537" style="fill:none;stroke:black;stroke-width:3.6px;"/>
        <path d="M370.703,930.36C370.623,930.763 370.394,928.784 370.313,929.188C369.966,930.924 371.691,937.825 371.875,938.563C373.898,946.654 372.267,954.186 378.125,948.328C380.888,945.565 380.279,936.419 376.953,933.094C374.196,930.337 373.922,927.29 371.875,930.36" style="fill:none;stroke:black;stroke-width:3.6px;"/>
        <path d="M363.672,874.502C363.694,874.588 364.261,879.392 362.891,875.283C362.365,873.705 363.352,874.181 363.282,874.112" style="fill:none;stroke:black;stroke-width:3.6px;"/>
        <path d="M372.656,874.893C372.318,874.216 372.104,874.274 372.656,873.721C372.706,873.672 372.656,873.721 372.266,872.94" style="fill:none;stroke:black;stroke-width:3.6px;"/>
        <path d="M383.594,873.33C383.594,872.386 385.279,872.488 384.375,872.94" style="fill:none;stroke:black;stroke-width:3.6px;"/>
    </g>
</svg>
