<?xml version="1.0" encoding="UTF-8" standalone="no"?>
<!DOCTYPE svg PUBLIC "-//W3C//DTD SVG 1.1//EN" "http://www.w3.org/Graphics/SVG/1.1/DTD/svg11.dtd">
<svg width="100%" height="100%" viewBox="0 0 291 357" version="1.1" xmlns="http://www.w3.org/2000/svg" xmlns:xlink="http://www.w3.org/1999/xlink" xml:space="preserve" xmlns:serif="http://www.serif.com/" style="fill-rule:evenodd;clip-rule:evenodd;stroke-linecap:square;stroke-miterlimit:1.5;">
    <g transform="matrix(1,0,0,1,-183.546,-448.761)">
        <g transform="matrix(1,0,0,1,-21,0)">
            <g transform="matrix(0.765016,0,0,0.782609,126.508,126.448)">
                <path d="M177,585L404,585L177,585Z" style="fill:none;stroke:black;stroke-width:20.68px;"/>
            </g>
        </g>
        <g transform="matrix(1,0,0,1,-21,0)">
            <g transform="matrix(0.765016,0,0,0.782609,126.508,89.6652)">
                <path d="M177,585L404,585L177,585Z" style="fill:none;stroke:black;stroke-width:20.68px;"/>
            </g>
        </g>
        <g transform="matrix(1,0,0,1,-21,0)">
            <g transform="matrix(0.834718,0,0,0.782609,115.167,52.5283)">
                <path d="M177,585L320,585L177,585Z" style="fill:none;stroke:black;stroke-width:19.78px;"/>
            </g>
        </g>
        <g transform="matrix(1,0,0,1,-21,0)">
            <g transform="matrix(0.765016,0,0,0.782609,126.508,166.221)">
                <path d="M177,585L404,585L177,585Z" style="fill:none;stroke:black;stroke-width:20.68px;"/>
            </g>
        </g>
        <g transform="matrix(1,0,0,1,-21,0)">
            <g transform="matrix(0.765016,0,0,0.782609,126.508,204.783)">
                <path d="M177,585L404,585L177,585Z" style="fill:none;stroke:black;stroke-width:20.68px;"/>
            </g>
        </g>
        <g transform="matrix(1,0,0,1,-21,0)">
            <g transform="matrix(0.765016,0,0,0.782609,126.508,242.776)">
                <path d="M177,585L404,585L177,585Z" style="fill:none;stroke:black;stroke-width:20.68px;"/>
            </g>
        </g>
        <g transform="matrix(1,0,0,1,-21,0)">
            <g transform="matrix(0.765016,0,0,0.782609,126.508,283.546)">
                <path d="M177,585L404,585L177,585Z" style="fill:none;stroke:black;stroke-width:20.68px;"/>
            </g>
        </g>
        <g transform="matrix(1.17752,0,0,0.782609,-122.099,43.5652)">
            <path d="M438.873,598L485,599.002L485,941L281,941L281,550L439.322,550L438.873,598Z" style="fill:none;stroke:black;stroke-width:28.01px;"/>
        </g>
    </g>
</svg>
