<?xml version="1.0" encoding="UTF-8" standalone="no"?>
<!DOCTYPE svg PUBLIC "-//W3C//DTD SVG 1.1//EN" "http://www.w3.org/Graphics/SVG/1.1/DTD/svg11.dtd">
<svg width="100%" height="100%" viewBox="0 0 1920 1920" version="1.1" xmlns="http://www.w3.org/2000/svg" xmlns:xlink="http://www.w3.org/1999/xlink" xml:space="preserve" xmlns:serif="http://www.serif.com/" style="fill-rule:evenodd;clip-rule:evenodd;stroke-linecap:square;stroke-miterlimit:1.5;">
    <g id="Artboard1" transform="matrix(1.39625,0,0,1.19408,-2114.28,47.9137)">
        <rect x="1514.26" y="-40.126" width="1375.11" height="1607.93" style="fill:none;"/>
        <g>
            <clipPath id="_clip1">
                <rect x="1514.26" y="-40.126" width="1375.11" height="1607.93"/>
            </clipPath>
            <g clip-path="url(#_clip1)">
                <g transform="matrix(0.716203,0,0,0.837465,1514.26,-40.126)">
                    <path d="M239.669,542.299C172.733,408.425 230.09,293.711 239.669,274.552C276.739,200.414 263.943,189.493 332.798,143.59C422.749,83.623 315.761,104.922 312.426,105.756C277.503,114.487 273.993,110.977 271.682,108.666C266.085,103.069 296.42,133.404 370.632,108.666C381.853,104.926 367.7,114.617 344.44,254.18C354.936,159.71 388.797,27.278 364.812,123.218" style="fill:none;stroke:black;stroke-opacity:0.45;stroke-width:2.13px;"/>
                </g>
                <g transform="matrix(0.716203,0,0,0.837465,1514.26,-40.126)">
                    <path d="M859.56,941.008C871.895,934.84 1064.29,885.908 1176.78,891.533C1187.01,892.044 1263.68,915.705 1432.89,891.533C1504.05,881.366 1942.2,859.519 1697.72,876.981C1669.61,878.989 1518.34,929.517 1374.68,908.994C1361.47,907.107 1173.04,905.148 1106.93,888.622C1088.14,883.923 1087.74,888.265 865.381,871.161L877.022,865.34" style="fill:none;stroke:black;stroke-opacity:0.45;stroke-width:2.13px;"/>
                </g>
                <g transform="matrix(0.716203,0,0,0.837465,1514.26,-40.126)">
                    <path d="M1738.47,885.712C1734.61,989.843 1734.3,988.498 1723.91,1092.34C1734.12,980.095 1737.5,981.753 1755.93,871.161C1749.73,920.718 1750.01,992.162 1744.29,1095.25C1743.57,1076.64 1741.48,1022.39 1747.2,862.43C1741.31,991.872 1746.2,991.132 1741.38,1121.44C1739.24,1055.17 1732.99,1055.69 1744.29,999.213C1746.53,988.007 1743.66,989.225 1738.47,978.841" style="fill:none;stroke:black;stroke-opacity:0.45;stroke-width:2.13px;"/>
                </g>
                <g transform="matrix(0.716203,0,0,0.837465,1514.26,-40.126)">
                    <path d="M175.643,265.822C218.522,284.198 207.521,294.688 230.939,335.668C248.601,366.577 249.904,364.837 271.682,393.874" style="fill:none;stroke:black;stroke-opacity:0.45;stroke-width:2.13px;"/>
                </g>
                <g transform="matrix(0.716203,0,0,0.837465,1514.26,-40.126)">
                    <path d="M155.271,385.143C219.349,328.185 217.798,327.937 289.144,280.373" style="fill:none;stroke:black;stroke-opacity:0.45;stroke-width:2.13px;"/>
                </g>
                <g transform="matrix(0.716204,0,0,0.837465,1514.26,-40.126)">
                    <path d="M371.844,1641.15C378.632,1715.82 396.639,1751.19 379.093,1768.74" style="fill:none;stroke:black;stroke-opacity:0.45;stroke-width:2.13px;stroke-linecap:round;stroke-linejoin:round;"/>
                </g>
                <g transform="matrix(0.716204,0,0,0.837465,1514.26,-40.126)">
                    <path d="M1537.95,258.084C1536.44,249.029 1523.94,19.807 1535.05,8.699" style="fill:none;stroke:black;stroke-opacity:0.45;stroke-width:2.13px;stroke-linecap:round;stroke-linejoin:round;"/>
                </g>
                <g transform="matrix(0.332071,0.00100584,-0.00116071,0.523947,2095.78,-26.3842)">
                    <path d="M1299.01,56.281C1305.91,54.901 1365.65,32.697 1365.95,32.999" style="fill:none;stroke:black;stroke-opacity:0.45;stroke-width:2.13px;"/>
                </g>
                <g transform="matrix(0.716203,0,0,0.837465,1514.26,-40.126)">
                    <path d="M146.54,1395.01C68.631,1488.5 52.994,1486.48 62.142,1491.05C111.139,1515.55 204.571,1545.86 232.034,1550.18C203.885,1439.82 188.118,1444.1 181.464,1330.99C145.099,1379.47 113.788,1388.45 123.258,1397.92" style="fill:none;stroke:black;stroke-opacity:0.45;stroke-width:2.13px;"/>
                </g>
                <g transform="matrix(0.716203,0,0,0.837465,1514.26,-40.126)">
                    <path d="M1.026,1136C37.497,1117.76 272.768,1161.34 341.529,1200.02C688.337,1395.1 802.73,1763.44 856.65,1907.22" style="fill:none;stroke:black;stroke-opacity:0.45;stroke-width:2.13px;"/>
                </g>
                <g transform="matrix(0.716203,0,0,0.837465,1514.26,-40.126)">
                    <path d="M417.197,53.371C417.197,150.325 417.401,148.886 414.286,245.45C413.844,259.179 414.286,258.169 414.286,417.156" style="fill:none;stroke:black;stroke-opacity:0.45;stroke-width:2.13px;"/>
                </g>
                <g transform="matrix(0.716203,0,0,0.837465,1514.26,-40.126)">
                    <path d="M408.466,487.003C396.721,674.922 370.708,717.295 388.094,804.224" style="fill:none;stroke:black;stroke-opacity:0.45;stroke-width:2.13px;"/>
                </g>
                <g transform="matrix(0.716203,0,0,0.837465,1514.26,-40.126)">
                    <path d="M370.632,941.008C365.873,1055.23 367.083,1054.73 361.901,1127.27" style="fill:none;stroke:black;stroke-opacity:0.45;stroke-width:2.13px;"/>
                </g>
                <g transform="matrix(0.716203,0,0,0.837465,1514.26,-40.126)">
                    <path d="M361.901,1287.33C361.901,1356.47 361.204,1355.5 358.991,1424.12C358.773,1430.86 358.991,1430.37 358.991,1508.51" style="fill:none;stroke:black;stroke-opacity:0.45;stroke-width:2.13px;"/>
                </g>
                <g transform="matrix(0.716204,0,0,0.837465,1571.55,-40.126)">
                    <path d="M794.977,27.548C824.494,103.686 902.686,232.496 945.768,305.931C961.768,333.203 1007.59,194.813 1032.76,169.639" style="fill:none;stroke:black;stroke-opacity:0.45;stroke-width:2.13px;stroke-linecap:round;stroke-linejoin:round;"/>
                </g>
                <g transform="matrix(0.716204,0,0,0.837465,1571.55,-40.126)">
                    <path d="M873.571,324.779C750.329,263.158 736.971,259.819 724.231,256.634" style="fill:none;stroke:black;stroke-opacity:0.45;stroke-width:2.13px;stroke-linecap:round;stroke-linejoin:round;"/>
                </g>
                <g transform="matrix(0.716203,0,0,0.837465,1514.26,-40.126)">
                    <path d="M1531.84,373.502C1529.12,449.472 1528.92,448.581 1528.92,524.837" style="fill:none;stroke:black;stroke-opacity:0.45;stroke-width:2.13px;"/>
                </g>
                <g transform="matrix(0.716203,0,0,0.837465,1514.26,-40.126)">
                    <path d="M1555.12,670.351C1537.53,793.449 1540.28,793.746 1537.66,804.224" style="fill:none;stroke:black;stroke-opacity:0.45;stroke-width:2.13px;"/>
                </g>
                <g transform="matrix(0.716203,0,0,0.837465,1514.26,-40.126)">
                    <path d="M1505.64,1048.69C1515.99,1121.11 1510.57,1120.31 1505.64,1194.2" style="fill:none;stroke:black;stroke-opacity:0.45;stroke-width:2.13px;"/>
                </g>
                <g transform="matrix(0.716203,0,0,0.837465,1514.26,-40.126)">
                    <path d="M1488.18,1502.69C1491.65,1540.86 1489.19,1539.77 1496.91,1578.36" style="fill:none;stroke:black;stroke-opacity:0.45;stroke-width:2.13px;"/>
                </g>
                <g transform="matrix(0.716203,0,0,0.837465,1514.26,-40.126)">
                    <path d="M1502.73,1700.59C1502.34,1707.35 1499.82,1750.07 1496.91,1784.99" style="fill:none;stroke:black;stroke-opacity:0.45;stroke-width:2.13px;"/>
                </g>
            </g>
        </g>
    </g>
</svg>
