<?xml version="1.0" encoding="UTF-8" standalone="no"?>
<!DOCTYPE svg PUBLIC "-//W3C//DTD SVG 1.1//EN" "http://www.w3.org/Graphics/SVG/1.1/DTD/svg11.dtd">
<svg width="100%" height="100%" viewBox="0 0 1080 1080" version="1.1" xmlns="http://www.w3.org/2000/svg" xmlns:xlink="http://www.w3.org/1999/xlink" xml:space="preserve" xmlns:serif="http://www.serif.com/" style="fill-rule:evenodd;clip-rule:evenodd;stroke-linecap:round;stroke-linejoin:round;stroke-miterlimit:1.5;">
    <path d="M37.786,127.786C51.361,105.161 51.314,96.396 72.137,75.573C96.458,51.252 149.904,55.347 158.702,53.588" style="fill:none;stroke:black;stroke-width:0.6px;"/>
    <path d="M158.702,53.588C128.081,34.744 117.195,30.39 113.359,28.855C119.113,32.308 119.294,31.574 122.977,37.099" style="fill:none;stroke:black;stroke-width:0.6px;"/>
    <path d="M160.076,56.336C154.837,72.053 151.149,69.52 142.214,83.817C141.001,85.756 130.763,102.137 125.725,107.176" style="fill:none;stroke:black;stroke-width:0.6px;"/>
    <path d="M244.427,99.924C262.402,171.822 258.965,177.918 264.275,174.733C270.368,171.077 322.29,139.924 342.137,131.985C358.929,125.268 344.06,141.768 354.351,177.786C368.385,226.905 373.49,311.135 374.198,322.824C375.673,347.155 370.187,362.93 392.519,353.359C399.301,350.452 475.953,317.601 476.489,315.191C480.999,294.892 446.966,223.531 441.374,173.206C440.738,167.48 433.452,101.904 435.267,101.45C489.355,87.929 525.076,92.874 525.343,86.183C526.37,60.529 523.07,61.179 520.763,35.802C519.745,24.601 522.744,19.42 511.603,20.534C507.682,20.926 381.463,52.207 346.718,70.916C339.678,74.707 307.925,91.804 252.061,102.977C241.224,105.145 241.817,105.809 232.214,110.611" style="fill:none;stroke:black;stroke-width:0.6px;"/>
    <path d="M496.336,119.771C530.196,297.536 524.201,298.375 522.29,313.664C521.453,320.364 525.798,318.068 606.676,312.137C578.722,236.377 581.423,232.524 587.939,231.221C634.403,221.929 644.168,200.168 659.695,231.221C666.718,245.267 671.53,303.022 672.056,309.326C765.507,298.393 763.944,285.897 761.985,278.55C758.303,264.742 751.959,267.058 705.496,109.084C678.038,15.726 678.51,11.885 670.382,12.901C608.717,20.609 611.369,33.869 612.366,38.855C617.01,62.074 621.5,60.096 626.107,83.13C626.728,86.236 625.945,85.857 629.16,122.606C562.447,126.419 564.249,138.239 555.878,136.565C544.365,134.262 563.726,85.366 511.603,98.397C489.129,104.015 478.973,106.704 491.756,125.878" style="fill:none;stroke:black;stroke-width:0.6px;"/>
    <path d="M719.237,32.748C719.237,29.502 783.285,146.451 783.397,293.817C840.932,293.817 978.544,304.855 981.832,299.924C985.829,293.928 981.834,293.592 981.858,209.847C970.681,211.023 848.392,223.884 841.374,209.847C839.547,206.193 837.388,162.18 835.267,157.939C833.519,154.443 837.687,160.303 884.122,157.859C879.655,97.674 881.931,94.905 876.489,93.817C833.793,85.278 835.208,96.381 824.58,99.924C813.453,103.633 822.873,93.275 815.42,70.916C811.627,59.538 909.301,60.996 934.504,52.595C938.985,51.102 938.613,51.574 943.664,51.069C974.544,47.981 965.734,34.836 955.878,5.267C954.129,0.021 875.13,1.841 832.214,19.008C806.531,29.281 759.906,25.943 754.351,34.275C752.521,37.021 750.241,40.44 713.13,35.802" style="fill:none;stroke:black;stroke-width:0.6px;"/>
    <path d="M65.802,469.389C87.079,613.01 109.907,612.449 87.176,756.412C83.16,781.845 82.963,781.263 74.962,805.267C68.28,825.312 263.029,766.841 325.344,757.939C336.588,756.333 369.003,707.853 345.191,660.229C343.664,657.176 332.513,623.722 331.45,620.534C324.223,598.851 283.097,562.891 273.435,562.519C235.582,561.063 235.689,561.361 200.153,573.206C153.256,588.838 248.129,560.871 249.008,559.466C252.929,553.191 285.136,472.696 247.481,463.282C228.737,458.597 221.706,431.94 108.55,460.229C106.535,460.733 107.314,461.61 85.649,472.443C75.173,477.681 74.451,474.988 64.275,480.076" style="fill:none;stroke:black;stroke-width:0.6px;"/>
    <path d="M129.924,510.611C138.17,543.598 136.957,545.51 140.611,545.725C210.874,549.858 187.086,495.68 186.412,495.343C159.524,481.9 126.754,504.62 123.817,507.557" style="fill:none;stroke:black;stroke-width:0.6px;"/>
    <path d="M163.511,713.664C168.226,699.521 156.858,661.784 158.931,660.229C165.272,655.473 243.958,633.805 252.061,641.908C264.723,654.571 250.437,698.446 238.321,704.504C201.899,722.715 200.711,717.777 161.985,721.298" style="fill:none;stroke:black;stroke-width:0.6px;"/>
    <path d="M372.672,490.763C361.832,479.924 343.604,522.456 342.137,525.878C324.861,566.19 327.582,566.548 323.817,609.847" style="fill:none;stroke:black;stroke-width:0.6px;"/>
    <path d="M372.672,490.763C377.822,480.463 434.823,483.991 447.481,502.977C455.762,515.398 466.505,508.02 471.908,535.038" style="fill:none;stroke:black;stroke-width:0.6px;"/>
    <path d="M561.985,515.191C414.999,498.859 484.508,644.667 548.244,680.076C594.816,705.95 596.886,703.364 626.107,696.87C672.513,686.558 652.671,639.006 656.641,644.962C657.15,645.725 680.504,663.241 682.595,664.809C687.55,668.525 717.089,702.807 723.817,699.924C726.781,698.653 759.764,684.518 760.458,683.13C768.079,667.888 712.36,581.78 696.336,545.725C684.673,519.484 639.695,416.209 609.313,365.573C597.818,346.414 601.249,340.656 590.992,338.092C589.546,337.73 584.885,336.565 580.305,322.824C578.511,317.442 575.67,321.353 526.87,370.153C523.817,373.206 521.85,373.206 522.29,373.206C532.977,373.206 557.105,371.744 560.129,371.561C573.03,424.42 577.261,446.508 583.359,458.702C604.733,501.45 612.547,548.334 613.893,556.412C596.613,535.676 589.326,518.738 557.405,515.191" style="fill:none;stroke:black;stroke-width:0.6px;"/>
    <path d="M354.351,709.084C361.454,723.289 401.474,750.512 424.58,751.832C489.945,755.567 490.933,746.9 523.817,730.458C537.976,712.759 534.885,711.374 545.191,690.763" style="fill:none;stroke:black;stroke-width:0.6px;"/>
    <path d="M410.84,556.412C385.111,562.844 363.306,657.836 395.573,673.969C428.035,690.201 430.846,681.023 453.588,652.595C468.032,634.54 460.921,588.123 452.061,577.786C436.264,559.357 434.728,561.19 410.84,556.412" style="fill:none;stroke:black;stroke-width:0.6px;"/>
    <path d="M587.939,586.947C573.572,572.58 530.277,591.88 548.244,609.847C580.584,642.187 598.367,634.533 600.153,632.748C629.378,603.522 591.46,588.355 587.939,586.947" style="fill:none;stroke:black;stroke-width:0.6px;"/>
    <path d="M702.443,489.237C717.328,459.465 708.988,449.396 736.03,440.382C767.245,429.977 771.016,426.513 794.046,449.542C795.948,451.444 812.366,467.863 815.42,475.496C814.559,468.176 824.24,465.062 801.679,431.221C782.531,402.499 808.312,409.336 815.42,408.321C831.006,406.094 844.578,388.465 855.114,423.588C857.448,431.365 862.118,429.331 891.756,518.244C909.726,572.155 949.787,637.266 917.71,765.572C903.045,824.234 790.724,872.895 761.985,757.939C743.053,682.214 799.836,767.388 801.679,770.153C828.37,810.189 852.367,759.159 858.168,753.359C860.076,751.45 865.308,725.293 865.801,722.824C871.347,695.099 875.306,662.444 847.481,606.794C836.836,585.505 856.114,675.996 800.153,648.015C767.824,631.851 763.604,636.703 743.664,606.794C742.604,605.203 742.872,605.211 732.977,585.42C709.618,538.701 710.719,538.254 708.55,486.183" style="fill:none;stroke:black;stroke-width:0.6px;"/>
    <path d="M784.885,512.137C787.374,517.114 742.639,577.912 790.992,590C795.921,591.232 856.423,606.358 820,533.511C813.362,520.236 775.264,517.061 771.145,516.718" style="fill:none;stroke:black;stroke-width:0.6px;"/>
    <path d="M864.275,435.802C896.668,387.212 923.556,357.209 1026.11,364.046C1035.6,364.678 1068.17,391.371 1049.01,429.695C1035.74,456.228 1042.14,462.138 1015.42,475.496C1011.77,477.322 1014.14,480.117 975.725,507.557C936.62,535.49 934.02,583.229 951.298,583.893C999.972,585.765 1003.72,589.484 1038.32,554.885C1044.51,548.701 1045.14,541.053 1049.01,548.779C1058.98,568.716 1056.94,599.311 1056.64,603.74C1056.47,606.238 953.105,634.415 931.45,623.588" style="fill:none;stroke:black;stroke-width:0.6px;"/>
    <path d="M925.343,455.649C911.322,441.627 1047.53,441.938 983.359,399.16C969.302,389.789 954.241,403.305 942.137,411.374C919.226,426.648 923.719,430.282 919.237,457.176" style="fill:none;stroke:black;stroke-width:0.6px;"/>
    <path d="M342.626,791.038C392.3,862.001 382.523,958.74 389.627,1025.23C400.227,1025.96 516.031,1033.88 522.412,1027.5C528.769,1021.14 535.628,959.181 536.294,953.169C512.524,954.189 513.34,953.178 489.191,955.191C485.139,955.528 485.199,954.357 438.406,957.225C438.365,901.101 438.324,844.976 438.283,788.852C396.494,792.462 352.475,804.639 348.489,808.626" style="fill:none;stroke:black;stroke-width:0.6px;"/>
    <path d="M549.771,1025.54C551.699,1010.89 567.614,889.938 582.992,843.801C641.43,843.801 647.686,834.849 651.389,849.664C662.66,894.745 665.749,893.169 672.885,939.557C679.662,983.608 677.699,983.155 680.795,1027.5C676.879,1027.18 631.847,1023.59 631.847,1023.59C624.478,1018.68 627.719,1016.76 625.922,961.053C616.622,965.713 604.017,956.394 594.718,961.053C589.395,963.72 599.203,967.14 577.13,1033.36C571.137,1051.34 565.38,1037.26 547.817,1031.4" style="fill:none;stroke:black;stroke-width:0.6px;"/>
    <path d="M602.534,886.794L602.534,941.511C605.378,941.037 637.124,935.746 637.71,933.695C640.795,922.895 636.296,895.898 635.756,892.656C632.398,872.51 622.961,891.904 602.534,890.702" style="fill:none;stroke:black;stroke-width:0.6px;"/>
    <path d="M700.244,818.397C684.16,826.439 690.138,832.565 698.41,1043.18C709.384,1043.17 829.246,1043.08 835.084,1031.4C888.443,924.687 780.929,912.638 758.87,906.336C798.154,907.847 808.788,919.312 823.359,882.885C840.947,838.916 802.636,829.338 797.954,828.168C750.16,816.219 750.075,814.684 702.198,824.259" style="fill:none;stroke:black;stroke-width:0.6px;"/>
    <path d="M715.878,851.618C728.652,864.393 712.663,900.242 758.87,884.84C798.188,871.734 722.969,829.619 713.924,847.71" style="fill:none;stroke:black;stroke-width:0.6px;"/>
    <path d="M739.328,966.916C741.253,977.821 737.404,989.232 739.328,1000.14C739.731,1002.42 791.608,1005.79 796.17,1006.09C794.19,984.149 802.011,978.715 782.321,968.87C746.687,951.054 742.679,963.286 735.42,966.916" style="fill:none;stroke:black;stroke-width:0.6px;"/>
    <path d="M59.267,920.015C69.928,914.685 71.632,920.453 201.924,877.023C238.272,864.907 261.145,862.048 266.412,861.389C287.439,960.518 294.22,958.56 307.581,1058.76C275.784,1058.76 125.711,1063.32 86.626,1076.35C76.51,1079.72 72.869,976.223 65.13,929.786" style="fill:none;stroke:black;stroke-width:0.6px;"/>
    <path d="M123.756,259.496C128.029,268.042 66.749,329.308 59.267,331.802" style="fill:none;stroke:black;stroke-width:0.6px;"/>
    <path d="M74.901,245.817C103.302,288.419 120.477,293.215 125.71,329.847" style="fill:none;stroke:black;stroke-width:0.6px;"/>
    <path d="M250.779,265.359C241.83,287.731 244.662,289.063 227.328,306.397C199.585,334.14 241.232,318.234 276.183,335.71C311.275,353.256 273.568,319.326 266.412,247.771C263.956,223.208 261.664,253.359 250.779,275.13" style="fill:none;stroke:black;stroke-width:0.6px;"/>
    <path d="M307.45,417.786C312.766,418.099 373.893,421.695 373.893,421.695L383.664,427.557" style="fill:none;stroke:black;stroke-width:0.6px;"/>
    <path d="M934.748,93.389C936.972,122.299 941.618,120.93 946.473,150.061C946.866,152.42 951.163,178.202 952.336,179.374" style="fill:none;stroke:black;stroke-width:0.6px;"/>
    <path d="M907.389,153.969C958.62,128.354 964.34,141.965 975.786,130.519" style="fill:none;stroke:black;stroke-width:0.6px;"/>
    <path d="M1030.5,42.58C1035.14,77.339 1039.99,111.531 1050.05,126.611C1057.26,137.435 1057.77,136.205 1063.72,148.107" style="fill:none;stroke:black;stroke-width:0.6px;"/>
    <path d="M1028.55,265.359C1022.66,294.795 1016.46,291.854 1007.05,320.076C1002.12,334.877 918.324,331.511 901.527,335.71" style="fill:none;stroke:black;stroke-width:0.6px;"/>
    <path d="M113.985,959.099C120.933,945.203 164.032,936.583 168.702,935.649C209.224,927.544 228.574,894.101 233.191,935.649C238.485,983.293 245.993,981.596 250.779,1029.45C177.931,1029.45 140.971,1027.59 117.893,1033.36C104.875,1036.61 113.985,1026.18 113.985,963.008" style="fill:none;stroke:black;stroke-width:0.6px;"/>
    <path d="M924.977,802.763C999.962,752.773 996.486,731.76 1003.14,716.779C1008.86,802.495 1014.87,801.348 1014.87,886.794L1014.87,1029.45C1013.7,1030.48 960.333,1031.53 948.427,1023.59C946.889,1022.56 926.803,1019.59 924.911,1019.31C929.794,902.127 955.407,903.268 938.656,802.763" style="fill:none;stroke:black;stroke-width:0.6px;"/>
    <path d="M305.496,417.786C319.115,426.866 335.778,469.581 354.351,451.008C368.807,436.552 372.678,442.452 387.573,427.557" style="fill:none;stroke:black;stroke-width:0.6px;"/>
</svg>
